<?xml version="1.0" standalone="no"?>
<!DOCTYPE svg PUBLIC "-//W3C//DTD SVG 20010904//EN"
 "http://www.w3.org/TR/2001/REC-SVG-20010904/DTD/svg10.dtd">
<svg version="1.0" xmlns="http://www.w3.org/2000/svg"
 width="1555.000000pt" height="1555.000000pt" viewBox="0 0 1555.000000 1555.000000"
 preserveAspectRatio="xMidYMid meet">
<metadata>
Created by potrace 1.14, written by Peter Selinger 2001-2017
</metadata>
<g transform="translate(0.000000,1555.000000) scale(0.100000,-0.100000)"
fill="#000000" stroke="none">
<path d="M2222 14252 c-18 -15 -51 -44 -73 -64 -22 -21 -46 -38 -51 -38 -6 0
-9 -2 -6 -5 3 -3 -21 -33 -53 -66 -32 -34 -77 -89 -99 -122 -22 -34 -43 -66
-48 -72 -6 -9 -33 -62 -37 -75 -1 -3 -9 -22 -19 -43 -47 -107 -61 -262 -33
-397 7 -35 51 -150 58 -150 4 0 10 -11 13 -25 4 -14 11 -25 17 -25 6 0 7 -4 4
-10 -3 -5 -1 -10 4 -10 6 0 11 -6 11 -13 0 -7 13 -27 29 -45 17 -17 27 -32 24
-32 -15 0 232 -227 250 -229 4 0 18 -12 31 -26 13 -14 26 -25 30 -25 3 0 15
-8 25 -17 37 -34 56 -48 61 -47 3 1 11 -7 18 -17 7 -11 20 -19 28 -19 8 0 14
-4 14 -8 0 -4 13 -15 28 -24 15 -9 43 -30 62 -47 19 -17 39 -31 43 -31 4 0 20
-11 34 -24 15 -14 30 -23 34 -21 4 3 9 -2 13 -10 3 -8 10 -15 16 -15 6 0 18
-6 25 -12 32 -28 45 -39 45 -34 0 3 15 -8 32 -25 18 -16 38 -29 44 -29 7 0 14
-3 16 -7 5 -11 66 -53 77 -53 5 0 11 -4 13 -8 4 -12 245 -172 258 -172 5 0 10
-4 10 -9 0 -5 21 -22 48 -37 26 -15 49 -30 52 -33 10 -12 90 -61 99 -61 5 0
11 -4 13 -9 4 -11 91 -66 101 -63 4 1 7 -2 7 -7 0 -5 26 -24 58 -42 31 -18 59
-35 62 -38 11 -13 120 -81 130 -81 5 0 10 -4 10 -8 0 -5 17 -17 38 -28 20 -10
39 -21 42 -24 13 -13 91 -60 100 -60 5 0 10 -4 10 -9 0 -5 12 -15 28 -22 15
-8 56 -33 92 -56 36 -23 69 -42 74 -41 5 0 12 -5 15 -10 9 -14 231 -153 231
-144 0 4 4 2 8 -3 12 -17 72 -57 72 -48 0 4 5 0 11 -10 6 -9 14 -15 20 -12 5
4 9 1 9 -4 0 -6 5 -11 11 -11 6 0 17 -7 25 -15 16 -16 49 -21 40 -6 -3 5 0 11
7 14 7 3 26 24 42 48 17 24 36 48 42 52 7 4 13 15 13 22 0 8 4 15 8 15 5 0 22
19 39 43 17 23 43 56 57 72 14 17 26 40 26 51 0 19 -26 45 -55 55 -5 1 -19 11
-29 21 -10 9 -23 15 -28 12 -4 -3 -8 -1 -8 3 0 5 -21 20 -47 33 -27 14 -50 28
-53 31 -3 3 -21 14 -40 25 -19 10 -42 24 -50 30 -8 6 -36 23 -61 37 -74 40
-94 52 -99 57 -5 5 -13 10 -89 52 -20 11 -48 29 -62 39 -14 10 -29 16 -33 12
-3 -3 -6 -2 -6 4 0 5 -18 18 -40 29 -22 10 -40 23 -40 27 0 5 -4 5 -10 2 -5
-3 -10 -2 -10 2 0 5 -17 17 -37 28 -21 11 -57 32 -79 47 -23 15 -47 28 -55 30
-7 2 -21 10 -31 18 -9 8 -39 26 -65 40 -26 13 -50 27 -53 30 -8 10 -175 105
-180 103 -3 -1 -9 5 -13 13 -4 8 -12 14 -17 14 -5 0 -34 16 -65 35 -30 20 -55
33 -55 30 0 -3 -10 3 -22 15 -12 11 -25 20 -30 20 -4 0 -32 16 -63 35 -30 20
-55 32 -55 28 0 -4 -9 3 -21 15 -11 12 -24 20 -29 17 -4 -3 -10 -2 -12 2 -4 9
-84 63 -94 63 -3 0 -19 9 -35 21 -16 11 -29 18 -29 14 0 -3 -9 3 -20 13 -11
10 -40 28 -65 41 -24 12 -47 26 -50 32 -4 5 -11 7 -16 4 -5 -4 -9 -2 -9 3 0 5
-18 17 -40 28 -22 10 -40 23 -40 27 0 5 -4 5 -10 2 -5 -3 -10 -2 -10 3 0 7
-38 29 -60 35 -3 1 -12 7 -20 14 -8 7 -19 13 -24 12 -5 0 -12 3 -15 8 -10 14
-91 64 -91 56 0 -5 -4 -3 -8 3 -7 10 -135 88 -157 95 -5 2 -17 9 -25 16 -8 7
-18 13 -23 13 -4 0 -17 9 -29 19 -11 11 -24 18 -28 16 -5 -3 -11 2 -14 11 -4
9 -9 14 -12 11 -7 -7 -57 41 -73 70 -16 32 -14 83 4 83 8 0 14 -3 14 -7 -5
-33 49 -90 121 -129 30 -16 57 -32 60 -35 3 -4 25 -17 50 -30 25 -13 47 -26
50 -30 3 -4 12 -9 20 -11 8 -2 23 -11 34 -20 10 -10 23 -15 28 -12 4 3 8 0 8
-7 0 -7 3 -10 6 -6 3 3 15 -3 27 -13 11 -11 24 -17 29 -14 4 3 8 1 8 -4 0 -8
27 -23 55 -32 6 -2 16 -10 23 -17 7 -7 20 -13 28 -13 8 0 14 -3 14 -8 0 -4 21
-18 48 -31 26 -14 54 -30 62 -37 8 -7 22 -14 30 -16 8 -2 19 -7 25 -11 27 -22
225 -134 225 -129 0 4 4 2 8 -4 9 -14 74 -49 85 -46 4 1 7 -2 7 -6 0 -9 37
-29 54 -30 5 0 12 -4 15 -9 3 -5 33 -25 66 -44 33 -18 74 -42 90 -51 17 -10
41 -24 55 -30 14 -7 27 -15 30 -19 3 -3 30 -19 60 -35 30 -16 57 -32 58 -36 2
-5 8 -8 13 -8 6 0 35 -16 65 -35 30 -19 61 -35 69 -35 8 0 15 -4 15 -8 0 -5
18 -17 40 -28 22 -10 40 -22 40 -25 0 -4 11 -10 24 -13 14 -3 31 -12 38 -19
15 -14 79 -51 121 -69 15 -7 27 -16 27 -21 0 -4 5 -5 10 -2 6 3 10 2 10 -3 0
-5 8 -13 18 -16 9 -3 26 -12 37 -19 43 -27 90 -51 98 -49 4 1 7 -2 7 -7 0 -5
17 -18 38 -29 20 -10 53 -28 73 -40 20 -11 47 -26 60 -34 13 -7 26 -15 29 -18
3 -3 19 -12 35 -20 17 -8 42 -23 58 -33 15 -10 27 -15 27 -10 0 4 4 3 8 -3 8
-13 199 -124 213 -124 5 0 9 -5 9 -11 0 -5 4 -8 9 -5 5 4 12 0 14 -6 4 -9 17
-1 37 22 42 48 55 64 55 69 0 3 8 14 17 25 56 66 68 82 68 94 0 7 4 11 8 8 4
-3 19 13 32 35 14 21 29 39 34 39 5 0 7 3 3 6 -3 4 4 15 16 25 12 10 18 18 12
19 -5 0 1 7 13 16 12 8 20 20 17 25 -4 5 -2 9 4 9 5 0 23 19 40 43 17 23 39
53 48 66 10 13 24 30 31 38 7 7 10 13 6 13 -4 0 4 10 17 23 29 29 60 67 54 67
-2 0 7 12 21 27 l25 27 -27 14 c-14 8 -70 29 -123 47 -53 19 -113 41 -133 49
-21 9 -40 16 -43 15 -6 -1 -86 29 -155 57 -20 9 -42 16 -50 18 -8 1 -26 8 -40
16 -14 7 -25 12 -25 11 0 -2 -23 4 -52 16 -10 3 -20 7 -23 8 -8 3 -39 15 -99
38 -29 11 -60 20 -67 20 -8 0 -14 5 -14 10 0 6 -2 8 -6 5 -3 -3 -41 9 -85 28
-43 18 -83 34 -87 35 -4 1 -18 6 -32 11 -14 6 -29 11 -35 12 -5 2 -21 8 -35
14 -21 9 -51 21 -70 27 -3 1 -12 5 -20 8 -19 8 -133 51 -140 52 -3 1 -18 7
-33 13 -16 7 -49 21 -75 31 -26 10 -78 32 -117 47 -38 16 -72 29 -75 30 -3 0
-16 5 -30 11 -21 10 -52 22 -70 28 -3 1 -18 7 -35 14 -16 7 -34 14 -40 16 -5
1 -28 10 -50 20 -55 24 -89 38 -95 39 -3 1 -22 9 -44 20 -21 10 -44 19 -50 21
-6 1 -29 10 -51 20 -22 11 -42 19 -45 20 -3 0 -14 6 -25 12 -11 6 -23 12 -27
12 -4 1 -29 11 -55 22 -77 33 -98 42 -103 44 -3 0 -29 13 -57 28 -29 15 -55
27 -58 27 -3 0 -37 16 -75 34 -39 19 -72 34 -73 34 -1 -1 -45 21 -97 48 -52
27 -98 48 -102 46 -5 -1 -8 2 -8 8 0 6 -3 9 -7 8 -5 -1 -31 13 -60 31 -29 18
-54 31 -55 29 -2 -2 -14 7 -27 19 -13 12 -28 20 -33 17 -4 -3 -8 -1 -8 3 0 5
-20 23 -45 41 -47 33 -93 97 -102 141 -8 39 -8 241 0 279 4 17 9 44 12 60 2
15 9 43 15 62 20 69 7 77 -48 32z"/>
<path d="M13200 14267 c0 -7 6 -37 14 -67 8 -30 18 -75 22 -100 10 -52 11
-236 2 -265 -3 -11 -9 -31 -14 -45 -4 -14 -7 -27 -7 -30 1 -6 -56 -61 -105
-102 -18 -14 -32 -24 -32 -22 0 6 -84 -49 -92 -61 -4 -5 -8 -6 -8 -1 0 5 -9 1
-20 -9 -11 -10 -20 -15 -20 -12 0 4 -25 -9 -55 -28 -30 -20 -55 -33 -55 -30 0
4 -12 -2 -27 -13 -16 -11 -31 -21 -35 -21 -21 -5 -104 -45 -109 -53 -3 -5 -9
-9 -13 -8 -3 0 -27 -8 -52 -20 -26 -11 -50 -20 -55 -20 -5 0 -9 -4 -9 -8 0 -5
-6 -9 -12 -9 -11 0 -77 -29 -183 -79 -47 -22 -109 -47 -124 -50 -7 -1 -18 -7
-24 -13 -6 -6 -19 -11 -29 -11 -10 0 -18 -5 -18 -11 0 -5 -4 -8 -9 -4 -5 3
-12 1 -16 -5 -4 -6 -11 -8 -16 -5 -5 4 -9 1 -9 -6 0 -7 -3 -10 -6 -6 -4 3 -28
-5 -55 -19 -27 -13 -49 -22 -49 -19 0 3 -15 -2 -32 -12 -18 -9 -35 -18 -38
-18 -10 -3 -45 -17 -70 -28 -14 -6 -27 -11 -30 -12 -10 -3 -46 -18 -90 -37
-25 -11 -49 -21 -55 -22 -5 -2 -23 -8 -38 -14 -16 -7 -30 -12 -31 -12 -2 0
-20 -7 -40 -15 -20 -8 -37 -14 -39 -13 -2 2 -15 -5 -30 -15 -15 -9 -27 -15
-27 -11 0 3 -11 -1 -25 -10 -14 -9 -25 -14 -25 -12 0 3 -32 -8 -71 -25 -40
-16 -78 -29 -85 -29 -8 0 -14 -5 -14 -11 0 -5 -4 -8 -8 -5 -4 2 -21 -2 -37 -9
-17 -8 -75 -30 -130 -51 -55 -20 -111 -41 -125 -47 -14 -5 -29 -11 -35 -13 -9
-2 -318 -116 -355 -131 -8 -3 -18 -5 -22 -5 -5 1 -8 -3 -8 -9 0 -5 -3 -8 -7
-6 -5 3 -19 0 -33 -6 -14 -5 -29 -11 -35 -13 -5 -1 -48 -16 -95 -34 -87 -32
-99 -37 -113 -39 -4 0 -21 -8 -37 -16 -16 -8 -32 -15 -35 -15 -17 2 -105 -37
-105 -46 0 -6 8 -21 18 -32 9 -12 33 -43 52 -69 19 -27 40 -53 45 -59 6 -6 17
-22 25 -34 8 -12 20 -28 25 -34 8 -9 64 -83 110 -144 6 -8 20 -25 32 -38 13
-14 22 -26 20 -28 -1 -3 12 -21 30 -40 17 -20 29 -36 27 -36 -4 0 58 -79 118
-152 33 -39 47 -40 86 -5 12 11 22 17 22 14 0 -4 17 3 38 16 20 13 75 46 122
72 47 26 88 53 92 59 4 6 8 7 8 2 0 -5 8 -3 18 5 9 8 37 25 62 39 25 13 48 28
52 34 4 6 8 7 8 2 0 -5 6 -4 13 2 6 5 28 19 47 30 154 87 185 106 188 113 2 5
8 7 13 3 5 -3 9 0 9 6 0 6 4 9 8 6 5 -3 18 3 29 13 11 10 29 22 41 25 12 4 22
12 22 18 0 6 3 9 6 5 3 -3 24 5 45 19 21 13 43 24 49 24 5 0 10 5 10 10 0 6 6
10 14 10 8 0 21 6 28 14 8 7 24 17 36 20 12 4 22 12 22 17 0 6 4 8 8 5 5 -3
19 4 30 15 12 11 22 17 22 13 0 -3 6 -2 13 3 6 6 32 22 57 35 121 68 196 113
202 122 4 6 8 8 8 4 0 -9 101 51 111 65 3 5 10 9 15 9 12 -1 184 96 207 116 9
8 17 11 17 7 0 -4 8 -1 18 7 9 9 33 24 52 33 19 10 37 21 40 24 3 4 19 13 35
21 47 23 169 93 175 100 3 4 26 17 53 29 26 13 47 27 47 32 0 6 5 7 10 4 6 -3
10 -1 10 5 0 6 4 9 9 6 5 -4 11 -3 13 1 1 5 24 19 51 33 26 13 47 29 47 34 0
5 3 7 6 3 6 -6 104 50 115 66 3 5 10 9 15 9 13 -1 118 60 126 72 4 6 8 7 8 3
0 -5 18 5 41 21 44 33 89 88 89 110 0 7 5 10 10 7 15 -9 12 -58 -5 -96 -8 -19
-14 -30 -15 -25 0 5 -11 -3 -25 -18 -14 -15 -25 -23 -25 -19 0 4 -6 1 -13 -8
-7 -9 -16 -17 -22 -19 -26 -7 -55 -24 -55 -32 0 -4 -7 -8 -15 -8 -8 0 -15 -4
-15 -10 0 -5 -3 -9 -7 -8 -8 2 -54 -21 -63 -31 -3 -3 -26 -17 -52 -31 -27 -13
-48 -28 -48 -33 0 -4 -4 -6 -9 -2 -5 3 -15 -1 -23 -8 -7 -7 -37 -26 -65 -42
-29 -15 -53 -33 -53 -38 0 -6 -3 -8 -6 -4 -4 3 -23 -5 -43 -18 -19 -14 -41
-25 -47 -25 -7 0 -15 -7 -18 -16 -3 -8 -10 -13 -15 -9 -5 3 -12 1 -16 -4 -3
-6 -26 -20 -50 -32 -25 -12 -45 -27 -45 -31 0 -5 -4 -6 -10 -3 -5 3 -10 1 -10
-4 0 -6 -7 -11 -15 -11 -8 0 -15 -5 -15 -11 0 -5 -4 -8 -9 -5 -5 3 -14 -1 -21
-9 -7 -8 -19 -15 -26 -15 -8 0 -14 -5 -14 -11 0 -5 -4 -7 -10 -4 -5 3 -10 1
-10 -4 0 -6 -4 -11 -10 -11 -5 0 -34 -16 -64 -35 -30 -19 -60 -35 -66 -35 -5
0 -10 -4 -10 -10 0 -5 -7 -10 -15 -10 -8 0 -15 -5 -15 -10 0 -6 -3 -9 -7 -8
-10 3 -186 -101 -195 -116 -4 -6 -8 -7 -8 -3 0 5 -13 -1 -29 -12 -16 -12 -34
-21 -40 -21 -5 0 -15 -8 -20 -17 -6 -10 -11 -14 -11 -10 0 5 -13 -1 -29 -12
-16 -12 -32 -21 -35 -21 -3 0 -30 -16 -60 -35 -30 -19 -59 -35 -65 -35 -5 0
-11 -5 -13 -12 -2 -6 -11 -12 -19 -13 -7 -2 -51 -26 -96 -54 -46 -28 -87 -51
-92 -51 -6 0 -15 -8 -20 -17 -6 -10 -11 -15 -11 -11 0 9 -101 -51 -111 -65 -3
-5 -9 -7 -12 -5 -4 1 -17 -6 -29 -17 -13 -10 -25 -18 -28 -17 -3 1 -13 -5 -22
-13 -10 -8 -18 -12 -18 -9 0 3 -13 -4 -29 -15 -16 -12 -34 -21 -40 -21 -6 0
-11 -3 -11 -8 0 -4 -15 -14 -32 -22 -18 -7 -37 -18 -43 -22 -31 -25 -84 -55
-89 -50 -3 3 -6 0 -6 -6 0 -7 -4 -12 -9 -12 -13 0 -135 -73 -139 -82 -2 -5
-10 -8 -18 -8 -8 0 -14 -5 -14 -12 0 -6 -3 -9 -6 -5 -6 6 -85 -39 -95 -55 -3
-5 -9 -8 -12 -6 -3 1 -19 -7 -35 -19 -36 -26 -34 -48 9 -94 16 -17 29 -34 29
-38 0 -3 15 -22 33 -41 17 -20 33 -39 34 -44 0 -4 17 -25 36 -46 19 -22 33
-41 30 -43 -2 -3 7 -14 21 -25 14 -10 23 -22 20 -25 -18 -18 31 5 94 43 41 25
89 54 107 65 19 11 44 28 55 37 11 10 20 16 20 13 0 -5 79 44 90 55 3 3 22 14
43 25 20 11 37 22 37 26 0 4 8 10 18 13 9 3 26 12 37 19 131 80 182 114 192
127 7 8 13 11 13 7 0 -9 60 31 72 48 4 5 8 6 8 2 0 -5 36 17 81 47 44 31 83
56 86 56 4 0 21 11 39 25 18 14 36 25 41 25 4 0 20 11 35 24 14 14 28 22 32
19 3 -3 8 2 12 11 3 9 10 14 14 11 4 -2 19 6 34 20 14 13 26 22 26 19 0 -6
183 117 191 129 3 5 8 7 10 6 6 -4 282 182 297 200 11 13 12 13 6 1 -4 -9 2
-7 17 6 13 11 53 41 89 65 36 24 69 50 73 57 5 7 12 10 17 7 5 -3 16 5 25 17
8 13 19 22 23 21 4 -1 17 6 29 17 12 10 24 16 27 13 3 -3 8 2 12 11 3 9 12 16
19 16 7 0 15 3 17 8 2 4 22 20 46 36 23 16 42 33 42 37 0 5 5 9 11 9 9 0 75
45 89 60 3 4 23 19 45 35 22 17 42 32 45 35 3 3 18 16 35 29 54 41 138 115
195 171 64 64 142 165 133 174 -4 3 -2 6 4 6 8 0 63 105 69 133 1 4 2 8 4 10
1 1 4 11 6 22 3 11 6 25 8 30 3 10 15 88 20 135 8 60 -37 270 -58 270 -5 0 -6
3 -3 7 4 3 2 12 -4 20 -6 7 -9 13 -5 13 3 0 -3 15 -14 33 -11 17 -27 46 -36
62 -54 97 -296 355 -333 355 -6 0 -11 5 -11 10 0 6 -7 10 -15 10 -8 0 -15 -6
-15 -13z"/>
<path d="M4518 13925 c-8 -9 31 -85 43 -85 6 0 8 -4 5 -9 -4 -5 -3 -11 1 -13
5 -1 37 -46 72 -98 36 -52 68 -97 73 -98 4 -2 6 -8 2 -13 -3 -5 0 -9 5 -9 6 0
11 -5 11 -11 0 -7 10 -20 22 -30 11 -11 17 -19 12 -19 -5 0 -1 -7 9 -14 10 -8
18 -17 17 -20 -1 -9 102 -160 112 -164 4 -2 8 -10 8 -18 0 -8 5 -14 10 -14 6
0 10 -7 10 -15 0 -8 5 -15 10 -15 6 0 10 -7 10 -15 0 -8 5 -15 10 -15 6 0 10
-4 10 -10 0 -8 17 -33 78 -115 4 -5 27 -40 51 -77 24 -38 48 -68 53 -68 5 0 7
-4 4 -8 -3 -5 3 -18 12 -28 10 -10 31 -40 47 -66 17 -27 34 -48 38 -48 5 0 6
-4 2 -9 -3 -6 1 -13 8 -18 8 -4 22 -23 31 -40 9 -18 22 -33 28 -33 6 0 9 -3 5
-6 -6 -7 36 -68 63 -92 11 -10 12 -12 1 -6 -9 5 -8 -2 5 -19 10 -15 22 -27 27
-27 4 0 7 -5 7 -10 0 -11 33 -60 63 -94 9 -11 17 -24 17 -28 0 -5 9 -19 21
-31 20 -22 23 -22 343 -22 285 0 323 1 318 15 -6 16 -33 62 -42 70 -3 3 -14
22 -25 43 -11 20 -23 37 -28 37 -4 0 -6 4 -3 9 4 5 3 11 -1 13 -5 1 -32 44
-62 93 -30 50 -58 92 -63 93 -4 2 -6 8 -2 13 3 5 1 9 -4 9 -5 0 -14 11 -20 25
-7 14 -16 31 -22 38 -5 7 -37 54 -71 105 -34 50 -66 92 -71 92 -5 0 -7 4 -4 8
2 4 -31 43 -75 86 -43 44 -79 76 -79 72 0 -4 -12 7 -26 24 -15 17 -29 29 -31
26 -3 -2 -23 13 -46 35 -23 21 -47 39 -54 39 -6 0 -13 4 -15 8 -1 4 -25 23
-53 42 -27 19 -53 40 -57 45 -5 6 -8 6 -8 1 0 -6 -7 -1 -15 10 -8 10 -15 16
-15 12 0 -5 -11 2 -24 13 -28 24 -62 46 -88 55 -10 3 -18 9 -18 13 0 4 -17 15
-37 26 -21 11 -40 22 -43 25 -9 10 -99 61 -106 59 -4 0 -10 3 -13 8 -12 16
-91 63 -106 63 -9 0 -14 4 -11 9 5 7 -20 19 -41 19 -3 0 -9 4 -12 9 -11 16
-109 72 -115 66 -3 -4 -6 -1 -6 6 0 7 -4 9 -10 6 -5 -3 -10 -2 -10 3 0 6 -24
22 -52 37 -29 15 -60 33 -69 41 -9 8 -18 12 -21 9z"/>
<path d="M10947 13915 c-8 -8 -17 -11 -21 -8 -3 4 -6 1 -6 -5 0 -7 -3 -11 -7
-10 -7 2 -26 -8 -78 -40 -11 -7 -28 -15 -37 -18 -10 -4 -18 -11 -18 -16 0 -5
-4 -6 -10 -3 -5 3 -10 2 -10 -2 0 -5 -12 -14 -27 -21 -16 -6 -41 -21 -58 -32
-16 -11 -40 -24 -52 -29 -34 -15 -158 -94 -161 -103 -2 -5 -8 -6 -13 -2 -5 3
-9 0 -9 -5 0 -6 -3 -10 -7 -9 -9 3 -64 -32 -74 -45 -3 -5 -9 -8 -13 -8 -8 2
-59 -31 -68 -44 -4 -5 -8 -6 -8 -2 0 8 -70 -40 -82 -58 -4 -5 -8 -6 -8 -2 0 8
-70 -40 -82 -58 -4 -5 -8 -6 -8 -1 0 5 -9 -1 -19 -13 -11 -12 -23 -22 -28 -22
-4 0 -24 -14 -42 -32 -19 -17 -31 -25 -26 -17 5 8 -25 -14 -66 -49 -78 -67
-249 -240 -249 -253 0 -10 -63 -102 -72 -106 -5 -2 -8 -8 -8 -13 0 -5 -16 -32
-35 -59 -19 -27 -35 -54 -35 -59 0 -5 -6 -16 -13 -23 -12 -12 -217 -343 -217
-350 0 -2 149 -3 330 -3 306 0 331 1 336 17 3 10 10 18 15 18 5 0 9 4 9 10 0
5 27 47 59 94 33 46 57 87 53 90 -3 3 0 6 6 6 5 0 21 17 33 38 13 20 28 40 33
44 6 4 7 8 3 8 -4 0 3 12 17 27 14 15 23 30 20 34 -2 5 5 13 16 19 11 6 18 15
15 20 -3 4 -1 10 3 12 11 4 90 121 88 131 0 5 7 13 17 18 9 6 15 14 12 20 -4
5 -2 9 2 9 5 0 49 60 99 133 49 72 97 141 106 151 10 10 15 22 13 26 -3 5 2
10 10 14 8 3 15 12 15 21 0 8 5 15 11 15 5 0 7 5 4 10 -3 6 -2 10 3 10 10 0
66 79 67 93 0 4 5 11 10 15 12 8 145 202 160 232 5 11 13 20 17 20 5 0 8 6 8
14 0 8 3 16 8 18 10 4 64 78 58 78 -3 0 2 9 11 20 15 17 27 50 18 50 -2 0 -10
-7 -18 -15z"/>
<path d="M6478 13259 c-18 -10 -15 -32 9 -60 7 -9 10 -19 6 -22 -3 -4 -1 -7 5
-7 7 0 11 -3 10 -7 -3 -12 83 -177 96 -185 6 -4 7 -8 3 -8 -4 0 4 -21 19 -47
15 -27 69 -131 122 -233 53 -102 99 -187 104 -188 4 -2 6 -7 3 -12 -3 -5 2
-16 11 -24 8 -9 12 -16 8 -16 -3 0 -2 -6 3 -12 6 -7 54 -98 108 -203 54 -104
101 -192 104 -195 3 -3 7 -15 9 -28 3 -21 1 -22 -16 -13 -11 6 -35 34 -53 63
-19 29 -37 55 -41 56 -5 2 -8 9 -8 16 0 7 -9 23 -20 36 -11 13 -20 26 -20 30
0 3 -9 16 -20 28 -12 12 -18 22 -15 22 3 0 -10 24 -30 53 l-35 52 -635 1
c-349 0 -629 -3 -623 -8 7 -4 10 -8 5 -8 -8 0 54 -86 92 -128 12 -12 21 -25
21 -28 0 -3 9 -17 20 -31 11 -14 20 -29 20 -34 0 -18 -32 6 -129 99 -56 53
-109 97 -118 98 -9 2 -26 -9 -37 -24 -12 -15 -19 -27 -17 -27 3 0 -12 -18 -32
-40 -20 -22 -54 -65 -74 -95 -21 -30 -40 -57 -43 -60 -27 -26 -78 -99 -73
-104 4 -3 2 -6 -4 -6 -5 0 -25 -21 -43 -47 -19 -27 -41 -53 -50 -60 -8 -7 -12
-13 -7 -13 4 0 -1 -9 -10 -19 -28 -31 -43 -50 -44 -55 0 -3 -14 -21 -31 -40
-16 -19 -30 -37 -29 -40 1 -3 -8 -15 -19 -26 -27 -27 -25 -48 5 -56 14 -3 25
-10 25 -16 0 -5 5 -6 10 -3 6 3 10 2 10 -3 0 -9 50 -37 63 -34 4 1 7 -2 7 -8
0 -5 7 -10 15 -10 8 0 15 -4 15 -9 0 -9 45 -29 45 -20 0 2 11 -6 25 -18 13
-13 28 -23 33 -23 5 0 22 -9 38 -21 16 -11 29 -17 29 -12 0 4 4 3 8 -3 12 -17
79 -54 85 -47 4 3 7 1 7 -5 0 -7 7 -12 15 -12 8 0 15 -4 15 -10 0 -5 4 -10 10
-10 5 0 56 -28 112 -61 57 -34 109 -62 116 -62 6 0 12 -4 12 -9 0 -4 7 -8 15
-8 8 0 15 -4 15 -10 0 -5 5 -10 10 -10 6 0 28 -11 49 -24 21 -14 42 -22 45
-19 3 4 6 1 6 -5 0 -6 21 -21 48 -34 26 -13 53 -29 60 -35 16 -15 26 -17 17
-3 -3 6 -1 10 4 10 6 0 11 6 11 13 0 7 9 29 20 50 11 20 20 39 20 42 1 5 60
135 98 215 15 30 27 57 27 60 1 3 13 31 28 63 15 32 27 61 27 66 0 5 -12 17
-27 27 -32 20 -40 28 -71 68 -29 37 -28 48 3 34 14 -6 25 -15 25 -20 0 -5 4
-7 9 -4 5 3 11 -1 15 -9 3 -8 10 -15 16 -15 6 0 18 -6 25 -12 31 -28 43 -37
46 -33 2 2 22 6 44 9 22 4 110 20 195 36 85 16 173 32 195 35 22 4 47 8 55 10
8 3 32 7 54 11 21 3 48 8 60 10 11 2 37 7 56 10 19 2 46 7 60 10 41 8 70 13
170 29 52 8 106 17 120 19 14 3 48 7 75 11 28 3 54 10 60 16 5 5 6 9 1 9 -4 0
-1 7 8 15 20 20 23 19 22 -7 -1 -13 4 -22 9 -22 6 1 38 5 72 8 80 8 139 16
183 23 57 9 181 3 258 -12 9 -1 46 -6 82 -10 36 -4 68 -9 73 -12 6 -4 11 12 8
30 -2 16 27 6 32 -12 4 -18 38 -27 132 -37 22 -2 203 -31 250 -40 17 -4 40 -8
52 -9 22 -3 103 -17 113 -20 3 -1 28 -5 55 -10 64 -10 84 -13 115 -20 38 -8
72 -15 105 -20 17 -3 53 -10 80 -15 28 -5 64 -11 80 -14 17 -3 58 -10 93 -17
67 -12 115 -2 126 28 3 8 10 12 15 8 5 -3 16 4 24 15 7 11 17 17 20 13 4 -3 7
-2 7 4 0 6 9 13 20 16 21 5 28 -7 10 -18 -6 -4 -7 -11 -4 -17 4 -6 3 -9 -2 -6
-5 4 -20 -9 -34 -28 -14 -18 -28 -34 -32 -34 -4 0 -16 -7 -27 -16 -19 -17 -19
-17 0 -51 10 -18 30 -59 43 -91 13 -31 40 -91 60 -133 20 -42 36 -82 36 -88 0
-6 4 -11 10 -11 5 0 9 -3 8 -7 -3 -13 25 -83 34 -83 4 0 8 -6 8 -13 0 -7 5
-24 12 -39 l12 -25 51 30 c27 16 75 44 105 60 30 17 58 34 61 40 3 5 8 7 10 6
2 -2 32 14 67 34 35 20 66 37 71 37 4 0 18 10 31 23 14 12 25 20 25 18 0 -4
56 25 110 58 17 9 55 31 85 48 91 50 135 77 141 86 3 5 9 8 13 8 10 -2 70 31
78 43 4 6 8 7 8 3 0 -5 13 1 29 12 16 12 33 21 38 21 4 0 21 10 37 23 l28 23
-18 30 c-34 53 -106 144 -115 144 -5 0 -8 3 -7 8 3 6 -46 77 -62 92 -3 3 -17
21 -30 40 -13 19 -27 37 -30 40 -3 3 -25 32 -49 65 -25 33 -48 62 -53 63 -4 2
-8 10 -8 18 0 8 -3 14 -7 14 -5 0 -19 17 -33 38 -14 20 -35 48 -48 62 -12 14
-25 33 -28 43 -3 9 -10 15 -15 12 -5 -4 -9 1 -9 9 0 28 -35 17 -68 -20 -18
-20 -32 -33 -32 -30 0 4 -30 -23 -67 -60 -102 -99 -133 -109 -71 -23 17 24 36
47 42 51 7 5 7 8 1 8 -5 0 -2 5 8 11 9 6 15 14 12 19 -3 5 4 14 16 20 11 7 18
14 15 17 -3 4 3 12 14 20 10 7 17 19 14 27 -7 18 -1247 17 -1266 -1 -6 -7 -8
-13 -2 -13 5 0 4 -4 -2 -8 -6 -4 -30 -36 -53 -72 -22 -36 -45 -71 -51 -77 -6
-7 -7 -13 -3 -13 4 0 0 -5 -10 -11 -9 -6 -15 -14 -12 -20 4 -5 1 -9 -4 -9 -6
0 -11 -7 -11 -15 0 -8 -4 -15 -9 -15 -5 0 -12 -8 -16 -19 -3 -10 -20 -34 -38
-52 -43 -46 -48 -19 -8 52 47 85 104 203 103 212 -1 4 2 7 7 7 5 0 13 10 17
23 4 12 18 39 31 60 13 20 20 37 17 37 -4 0 0 8 8 18 15 17 25 39 26 56 0 5 4
12 9 15 5 3 16 20 24 36 8 17 37 73 64 125 27 52 48 98 47 103 -1 4 2 7 8 7 5
0 10 3 10 8 0 4 25 55 56 112 30 58 56 110 57 115 1 6 5 12 8 15 9 7 100 189
97 193 -2 2 3 11 10 20 26 31 -15 37 -237 32 -116 -2 -234 -7 -263 -9 -29 -3
-105 -8 -168 -11 -163 -9 -306 -18 -465 -32 -98 -8 -167 -8 -265 1 -71 6 -196
14 -305 21 -213 12 -279 17 -340 21 -137 10 -470 12 -487 3z"/>
<path d="M5887 13193 c-3 -5 0 -21 8 -36 8 -15 12 -27 10 -27 -2 0 15 -37 38
-82 23 -46 40 -86 39 -90 -1 -5 3 -8 8 -8 6 0 10 -3 9 -7 -2 -17 14 -53 24
-53 6 0 8 -3 4 -6 -3 -3 9 -36 28 -73 19 -36 35 -69 36 -73 1 -4 39 -82 84
-175 l82 -168 276 0 c153 0 277 2 277 5 0 3 -11 18 -25 33 -14 15 -23 27 -19
27 4 0 -3 9 -16 20 -13 11 -19 20 -14 20 5 0 0 7 -10 15 -11 8 -17 15 -13 15
5 0 2 7 -5 15 -27 32 -34 42 -68 90 -19 28 -38 52 -42 53 -4 2 -8 8 -8 13 0 9
-22 39 -57 76 -12 13 -19 23 -16 23 3 0 -16 26 -43 57 -27 32 -58 69 -69 82
-24 28 -76 80 -103 102 -28 24 -132 80 -132 71 0 -4 -4 -2 -8 4 -8 13 -179 72
-233 80 -20 4 -39 2 -42 -3z"/>
<path d="M9539 13196 c-2 -3 -16 -7 -29 -9 -14 -3 -45 -12 -70 -21 -25 -9 -53
-19 -63 -21 -9 -2 -23 -7 -30 -12 -6 -4 -18 -8 -26 -10 -8 -1 -17 -5 -20 -10
-3 -4 -12 -9 -20 -11 -16 -3 -108 -63 -138 -89 -13 -11 -23 -26 -23 -32 0 -7
-4 -10 -9 -7 -5 3 -16 -5 -25 -19 -9 -13 -26 -33 -38 -45 -12 -11 -19 -20 -15
-20 3 0 -4 -10 -16 -23 -35 -37 -57 -67 -57 -76 0 -5 -4 -11 -10 -13 -8 -3
-55 -62 -100 -128 -8 -12 -52 -73 -98 -136 -45 -63 -81 -114 -80 -115 2 -1
125 -2 275 -3 l272 -3 30 57 c17 32 28 60 24 64 -3 3 -1 6 6 6 7 0 10 4 7 9
-4 5 -2 11 3 13 7 3 52 94 52 108 0 3 8 13 17 24 9 10 16 20 15 22 -2 2 13 35
31 74 19 38 32 70 29 70 -2 0 3 7 11 16 9 8 14 20 11 25 -4 5 -1 9 4 9 6 0 10
3 9 8 -1 4 15 40 35 80 21 39 34 72 30 72 -5 0 -2 4 5 9 7 4 14 15 16 23 1 8
9 27 19 41 9 15 17 38 17 52 0 20 -5 25 -23 25 -13 0 -26 -2 -28 -4z"/>
<path d="M2000 12912 c0 -6 5 -14 10 -17 6 -4 8 -10 5 -15 -2 -4 -1 -21 4 -36
5 -16 19 -60 31 -99 11 -38 23 -77 26 -85 3 -8 5 -16 5 -17 0 -2 7 -22 15 -45
9 -24 17 -47 18 -53 2 -5 6 -19 10 -30 5 -11 12 -31 16 -45 4 -14 12 -34 16
-45 4 -11 8 -22 9 -25 1 -3 4 -12 8 -20 3 -8 22 -60 43 -115 20 -55 40 -105
45 -111 5 -6 6 -14 2 -17 -3 -4 -1 -7 5 -7 7 0 11 -3 11 -7 -1 -5 0 -10 1 -13
1 -3 3 -12 5 -20 1 -8 14 -41 29 -72 14 -31 26 -62 26 -67 0 -6 5 -11 12 -11
6 0 9 -3 5 -6 -3 -4 2 -23 12 -43 11 -20 20 -40 21 -46 1 -5 11 -26 23 -45 12
-19 21 -37 21 -40 -2 -9 9 -35 18 -41 5 -3 10 -13 12 -21 3 -21 49 -112 59
-116 4 -2 5 -8 1 -13 -3 -5 0 -9 5 -9 6 0 10 -3 9 -7 -3 -10 38 -88 64 -125
11 -16 16 -28 11 -28 -4 0 -3 -4 2 -8 6 -4 21 -27 34 -52 44 -81 114 -195 123
-198 4 -2 6 -8 2 -13 -3 -5 0 -9 5 -9 6 0 11 -7 11 -15 0 -8 4 -15 9 -15 5 0
14 -13 21 -30 7 -16 16 -30 21 -30 5 0 9 -5 9 -11 0 -6 6 -17 13 -24 27 -30
37 -44 37 -50 0 -11 103 -145 112 -145 4 0 8 -6 8 -13 0 -7 16 -30 35 -50 19
-20 35 -39 35 -42 0 -8 64 -77 193 -208 70 -71 127 -127 127 -124 0 3 15 -10
34 -28 18 -19 36 -35 40 -35 4 0 17 -11 30 -25 13 -13 26 -22 29 -18 4 3 7 2
7 -4 0 -24 38 -22 131 9 101 33 123 52 90 79 -9 8 -48 39 -86 69 -39 30 -80
65 -92 78 -13 13 -23 21 -23 18 0 -3 -55 50 -122 118 -120 120 -218 226 -212
226 2 0 -5 10 -15 23 -11 12 -28 32 -38 43 -10 12 -29 36 -43 55 -14 18 -33
41 -42 51 -10 10 -15 18 -10 18 4 0 0 6 -8 13 -8 7 -33 38 -54 70 -22 31 -43
57 -48 57 -4 0 -7 3 -6 8 1 4 -29 54 -68 112 -38 58 -87 134 -109 170 -21 36
-44 68 -49 72 -7 5 -7 8 -1 8 6 0 6 3 0 8 -6 4 -24 33 -40 64 -17 32 -33 58
-37 58 -5 0 -8 8 -8 19 0 10 -7 24 -15 31 -8 7 -15 19 -15 26 0 8 -5 14 -12
14 -6 0 -9 2 -6 5 3 3 -23 58 -58 123 -35 64 -64 123 -64 130 0 6 -4 12 -10
12 -5 0 -9 3 -9 8 3 12 -25 72 -33 72 -4 0 -8 7 -8 15 0 8 -8 29 -18 47 -10
18 -30 60 -45 94 -15 33 -39 87 -54 120 -14 32 -27 61 -28 64 -4 13 -19 48
-33 80 -18 40 -45 110 -73 190 -13 35 -33 67 -57 88 -20 18 -48 43 -62 55 -44
39 -60 50 -60 39z"/>
<path d="M13429 12881 c-22 -21 -39 -37 -39 -34 0 10 -71 -64 -74 -77 -3 -15
-9 -31 -49 -130 -12 -30 -22 -57 -23 -60 0 -3 -11 -27 -24 -55 -12 -27 -23
-56 -23 -62 0 -7 -4 -13 -9 -13 -5 0 -6 -4 -3 -10 3 -5 2 -10 -4 -10 -6 0 -13
-16 -17 -35 -3 -19 -10 -35 -15 -35 -5 0 -9 -9 -9 -20 0 -11 -5 -20 -10 -20
-6 0 -10 -6 -9 -12 1 -7 -25 -70 -59 -139 -34 -69 -62 -131 -62 -138 0 -6 -4
-11 -9 -11 -5 0 -11 -10 -15 -22 -3 -13 -6 -25 -7 -28 -1 -3 -9 -17 -19 -31
-11 -14 -20 -32 -22 -40 -2 -8 -6 -16 -9 -19 -10 -8 -63 -114 -61 -122 1 -5
-2 -8 -6 -8 -10 0 -37 -50 -34 -62 1 -5 -2 -8 -6 -8 -8 0 -28 -34 -30 -53 -1
-4 -6 -13 -12 -20 -17 -20 -119 -187 -114 -187 2 0 -5 -9 -16 -20 -11 -11 -20
-27 -20 -35 0 -8 -4 -15 -10 -15 -5 0 -10 -7 -10 -15 0 -8 -4 -15 -10 -15 -5
0 -10 -7 -10 -15 0 -8 -4 -15 -10 -15 -5 0 -10 -7 -10 -15 0 -8 -4 -15 -8 -15
-5 0 -15 -12 -23 -27 -8 -16 -21 -33 -29 -40 -8 -7 -12 -13 -8 -13 4 0 -4 -12
-17 -26 -14 -15 -22 -30 -19 -35 3 -5 1 -9 -3 -9 -5 0 -31 -30 -58 -66 -58
-80 -137 -178 -208 -258 -78 -89 -267 -276 -278 -276 -6 0 -7 -4 -4 -10 3 -5
-1 -10 -9 -10 -8 0 -19 -6 -23 -13 -4 -7 -30 -31 -58 -52 -27 -22 -51 -43 -53
-47 -2 -5 -9 -8 -16 -8 -15 0 -56 -42 -56 -57 0 -12 76 -44 162 -68 l57 -16
80 64 c44 36 77 68 74 71 -4 3 -1 6 6 6 13 0 241 222 241 234 0 4 13 19 28 34
44 42 152 177 152 190 0 7 4 12 8 12 5 0 24 21 42 48 19 26 38 49 42 50 5 2 6
8 2 13 -3 5 0 9 5 9 6 0 11 7 11 15 0 8 3 15 8 15 4 0 20 21 37 48 16 26 34
50 40 54 6 5 6 8 0 8 -7 0 -7 3 0 8 15 10 85 120 85 132 0 5 5 10 10 10 6 0
10 4 10 9 0 5 22 48 49 94 27 47 47 88 43 91 -3 3 -1 6 5 6 6 0 16 12 22 28 5
15 17 38 25 52 35 57 154 309 148 314 -3 3 0 6 6 6 7 0 11 3 10 8 -1 4 5 21
15 38 9 17 13 34 10 38 -4 3 -2 6 4 6 9 0 18 21 28 60 0 3 6 15 13 28 7 12 9
22 5 22 -4 0 -3 4 2 8 9 6 68 143 71 162 0 3 8 22 17 43 17 39 87 232 92 251
1 6 5 19 9 28 4 9 9 25 11 35 2 10 4 19 5 21 2 1 3 5 5 10 1 4 5 16 9 27 27
70 38 100 35 100 -1 0 6 27 16 60 9 33 19 67 20 75 2 8 4 15 5 15 1 0 3 8 5
18 5 25 -3 21 -46 -22z"/>
<path d="M2451 12358 c-5 -13 -4 -32 0 -43 5 -11 14 -32 20 -47 6 -16 16 -28
22 -28 6 0 7 -3 4 -6 -4 -4 2 -19 13 -34 11 -15 17 -30 13 -34 -3 -3 -1 -6 5
-6 7 0 11 -3 10 -7 -3 -10 113 -227 124 -231 4 -2 8 -10 8 -17 0 -8 7 -20 15
-29 9 -8 16 -19 16 -23 0 -7 35 -69 153 -267 10 -17 23 -34 28 -37 5 -3 9 -10
9 -15 -1 -5 7 -18 16 -29 10 -11 18 -22 18 -25 2 -11 61 -105 78 -122 9 -10
17 -22 17 -28 0 -5 7 -13 16 -18 9 -5 16 -13 16 -18 1 -15 50 -84 60 -84 5 0
6 -4 3 -10 -3 -5 -1 -10 4 -10 6 0 11 -7 11 -15 0 -8 3 -15 8 -15 4 0 22 -23
41 -50 19 -28 38 -50 43 -50 4 0 8 -7 8 -15 0 -8 9 -20 20 -27 11 -7 20 -16
20 -20 0 -4 8 -17 18 -29 9 -11 25 -30 35 -42 61 -74 109 -128 165 -186 34
-36 62 -70 62 -75 0 -5 2 -7 5 -5 2 3 44 -32 92 -78 48 -46 90 -83 95 -83 4 0
19 -12 33 -27 14 -15 25 -23 25 -18 0 5 7 -1 16 -13 8 -12 19 -20 24 -17 4 3
11 -2 14 -11 4 -9 9 -14 13 -11 3 4 11 0 17 -8 17 -22 72 6 99 52 12 21 22 40
23 43 0 3 6 18 12 33 15 35 41 149 47 202 21 187 23 288 5 330 -7 17 -14 32
-15 35 -3 16 -32 50 -41 50 -7 0 -15 7 -18 16 -4 9 -9 14 -12 11 -3 -3 -19 9
-35 25 -16 17 -29 28 -29 25 0 -3 -18 10 -39 30 -22 19 -43 35 -48 36 -4 0
-16 11 -27 24 -10 13 -21 22 -23 19 -3 -3 -14 6 -25 19 -11 14 -24 25 -29 25
-6 0 -20 10 -33 23 -38 37 -76 67 -76 61 0 -3 -9 4 -20 17 -10 13 -19 21 -20
17 0 -4 -10 3 -23 15 -12 12 -37 33 -56 47 -18 14 -44 35 -57 48 -12 12 -26
22 -29 22 -3 0 -21 14 -39 31 -19 17 -37 29 -39 27 -3 -1 -15 10 -27 25 -12
15 -25 26 -27 23 -3 -3 -15 6 -25 20 -11 14 -22 23 -25 21 -2 -3 -14 5 -27 17
-31 29 -77 67 -111 91 -15 11 -38 30 -51 43 -13 13 -24 20 -24 17 0 -3 -11 6
-25 21 -14 15 -25 24 -25 20 0 -4 -11 5 -25 20 -14 15 -25 23 -25 19 0 -5 -6
-2 -12 6 -11 13 -72 64 -138 116 -8 6 -35 28 -60 48 -25 20 -55 43 -67 53 -13
9 -35 28 -51 42 -15 14 -40 34 -56 45 -15 11 -37 28 -48 38 -27 22 -27 22 -37
-5z"/>
<path d="M12984 12358 c-17 -13 -38 -30 -47 -38 -9 -8 -31 -26 -49 -40 -17
-14 -42 -35 -55 -47 -13 -12 -23 -20 -23 -17 0 3 -6 -1 -14 -8 -7 -7 -30 -26
-52 -43 -21 -16 -48 -40 -61 -53 -12 -12 -25 -22 -28 -22 -5 1 -60 -41 -103
-80 -10 -8 -38 -31 -62 -50 -25 -19 -53 -43 -62 -54 -10 -10 -18 -15 -18 -10
0 5 -6 2 -13 -6 -7 -8 -41 -37 -77 -64 -36 -27 -69 -54 -75 -61 -5 -6 -28 -24
-50 -40 -22 -17 -42 -32 -45 -35 -3 -3 -27 -23 -55 -45 -27 -22 -58 -48 -67
-57 -10 -10 -18 -15 -18 -11 0 3 -8 -4 -19 -15 -10 -12 -21 -19 -25 -15 -3 3
-6 -1 -6 -10 0 -9 -3 -16 -7 -15 -12 4 -143 -102 -143 -115 0 -5 -3 -8 -6 -4
-4 3 -12 1 -19 -6 -7 -7 -29 -25 -50 -42 -21 -16 -44 -36 -52 -43 -7 -7 -13
-10 -13 -6 0 4 -6 1 -12 -7 -7 -9 -38 -35 -68 -59 -30 -24 -60 -50 -67 -57 -6
-8 -14 -14 -17 -13 -4 0 -12 -4 -19 -10 -6 -6 -21 -18 -32 -26 -11 -9 -13 -13
-5 -9 12 5 12 4 -1 -7 -18 -15 -53 -78 -43 -78 4 0 2 -6 -3 -12 -15 -19 -1
-256 22 -368 8 -37 16 -74 19 -85 20 -72 29 -96 41 -109 8 -8 15 -19 15 -24 0
-4 11 -19 25 -32 14 -13 25 -20 25 -16 0 5 6 3 14 -3 10 -8 22 -5 52 15 21 15
41 30 42 35 2 5 8 9 14 9 5 0 15 6 22 13 7 6 33 28 57 47 56 45 267 256 339
339 30 35 61 70 68 77 7 8 11 14 8 14 -3 0 5 10 17 23 12 13 33 38 47 56 14
17 34 41 45 53 12 13 14 18 5 14 -12 -6 -12 -5 1 6 9 7 43 51 77 98 34 47 71
96 82 110 11 14 20 30 20 36 0 6 9 19 20 29 11 10 20 24 20 32 0 7 3 13 8 13
4 0 18 20 32 45 14 25 28 45 32 45 5 0 8 7 8 15 0 8 5 15 11 15 5 0 7 5 4 10
-3 6 -1 10 5 10 6 0 8 5 5 10 -3 6 -1 10 5 10 6 0 16 12 23 28 6 15 14 29 17
32 10 9 58 95 58 104 0 5 4 12 9 15 16 11 72 109 66 115 -4 3 -1 6 5 6 7 0 12
7 12 15 0 8 5 15 10 15 6 0 10 5 10 10 0 6 18 42 39 80 22 39 37 70 33 70 -4
0 -2 4 5 8 12 7 91 160 91 176 0 5 4 12 9 15 4 3 16 23 26 44 13 29 15 43 7
58 -13 23 -10 24 -46 -3z"/>
<path d="M7678 11805 c-2 -2 -30 -6 -63 -9 -33 -3 -82 -9 -110 -13 -27 -3 -59
-7 -70 -9 -11 -1 -23 -3 -27 -3 -4 -1 -5 -11 -3 -23 8 -49 16 -105 21 -144 3
-23 7 -52 9 -65 3 -13 7 -41 10 -64 3 -22 10 -67 15 -100 5 -33 12 -80 15
-105 3 -25 8 -52 10 -60 2 -8 7 -35 10 -60 2 -25 7 -61 10 -80 3 -19 8 -48 10
-65 6 -48 14 -99 40 -275 2 -14 6 -38 9 -55 13 -86 17 -113 21 -150 3 -22 7
-51 10 -65 7 -38 14 -82 20 -126 6 -53 17 -125 21 -149 2 -11 7 -40 10 -65 3
-25 7 -56 10 -70 2 -14 6 -43 9 -65 3 -22 7 -50 9 -62 3 -11 7 -43 11 -70 8
-57 13 -91 19 -118 2 -11 7 -45 10 -75 4 -30 8 -64 11 -75 2 -11 4 -35 4 -54
1 -37 12 -36 17 1 2 13 5 37 8 53 2 17 7 47 10 68 3 20 9 54 12 75 3 20 7 48
9 62 5 41 17 124 21 145 2 10 6 37 9 60 3 22 8 51 10 65 2 14 7 45 10 70 4 25
8 56 10 70 2 14 11 75 20 135 9 61 18 121 20 135 2 14 7 49 10 79 3 30 8 57
10 60 2 4 6 27 9 51 4 25 9 61 12 80 2 19 6 49 9 65 3 28 30 213 41 280 2 17
7 41 9 55 3 14 7 41 9 60 3 19 7 51 10 70 3 19 8 51 10 70 2 19 9 64 15 100
13 82 23 151 26 170 12 94 17 128 21 142 4 13 -6 17 -48 23 -29 4 -60 9 -68
10 -78 14 -273 28 -282 20z"/>
<path d="M7287 11754 c-1 -2 -34 -6 -72 -9 -39 -4 -73 -9 -76 -11 -4 -2 -30
-6 -59 -9 -29 -3 -55 -7 -59 -9 -3 -2 -31 -7 -61 -11 -30 -3 -62 -8 -70 -10
-8 -2 -28 -6 -45 -9 -41 -7 -85 -15 -115 -21 -13 -2 -40 -7 -60 -10 -20 -3
-47 -8 -60 -10 -14 -3 -36 -7 -50 -10 -14 -3 -36 -7 -50 -10 -14 -3 -36 -7
-50 -10 -31 -4 -184 -36 -187 -38 0 -1 11 -11 25 -21 15 -12 22 -14 17 -5 -5
8 7 -1 25 -18 19 -18 39 -33 46 -33 7 0 14 -4 16 -8 2 -4 48 -43 103 -87 55
-44 114 -95 132 -112 17 -18 36 -33 42 -33 6 0 11 -7 11 -16 0 -8 5 -12 10 -9
6 3 10 3 10 -2 0 -4 23 -33 51 -63 110 -120 170 -228 209 -374 16 -61 32 -127
36 -146 3 -19 7 -39 8 -45 7 -26 25 -128 31 -175 3 -19 7 -42 10 -50 2 -8 7
-37 11 -65 3 -27 8 -58 10 -68 2 -10 6 -48 10 -85 3 -37 7 -69 9 -72 11 -18
20 -193 18 -355 -1 -159 -5 -202 -22 -265 -12 -41 -22 -82 -24 -90 -2 -16 -21
-40 -32 -40 -4 0 -4 12 -1 28 3 15 8 45 11 67 3 22 10 69 16 104 14 91 9 261
-8 262 -7 1 -16 2 -20 3 -46 11 -106 23 -158 31 -11 2 -34 7 -51 10 -19 4 -34
3 -38 -4 -4 -5 5 -38 20 -73 36 -86 38 -99 38 -218 0 -105 -5 -160 -23 -228
-6 -20 -13 -53 -16 -72 -5 -28 -47 -157 -139 -425 -2 -5 -11 -28 -21 -50 -9
-22 -18 -44 -19 -50 -1 -5 -5 -16 -9 -22 -5 -7 -6 -17 -2 -22 7 -13 212 -141
225 -141 5 0 10 -4 10 -8 0 -5 19 -19 43 -31 23 -12 67 -37 97 -56 30 -19 61
-34 68 -35 6 0 12 -5 12 -11 0 -5 5 -7 10 -4 6 3 10 2 10 -4 0 -9 25 -21 43
-21 4 1 15 -6 23 -15 9 -8 20 -13 25 -10 5 4 9 2 9 -3 0 -21 75 -25 555 -24
500 0 500 0 553 23 28 12 52 26 52 31 0 4 8 8 19 8 10 0 24 7 31 15 7 8 16 12
21 9 5 -3 12 2 15 10 3 9 10 14 14 11 5 -3 11 -1 15 4 3 6 26 20 50 32 25 12
45 27 45 32 0 6 3 7 6 4 4 -4 19 2 34 13 16 11 33 20 38 20 5 0 13 7 16 16 3
8 10 12 16 9 5 -3 10 -1 10 4 0 6 6 11 13 11 7 0 23 9 35 20 12 12 22 18 22
15 0 -7 62 35 71 48 3 5 9 8 13 8 3 0 12 2 20 5 19 7 16 21 -25 119 -6 17 -13
35 -15 40 -1 6 -14 42 -29 80 -15 39 -28 75 -30 80 -1 6 -5 17 -8 25 -12 29
-51 154 -62 200 -4 16 -38 171 -45 201 -12 59 -12 214 0 261 7 23 14 52 16 62
2 11 7 22 12 25 15 10 33 74 23 84 -5 5 -53 0 -117 -13 -60 -12 -116 -22 -124
-23 -34 0 -38 -16 -35 -145 1 -70 6 -145 10 -167 3 -22 8 -49 9 -60 2 -11 7
-37 11 -57 8 -41 2 -47 -21 -23 -9 8 -13 15 -10 15 4 0 0 16 -8 35 -8 19 -13
35 -11 35 2 0 -2 19 -9 43 -6 23 -14 62 -16 87 -7 94 -5 368 4 440 13 114 14
122 20 165 3 22 8 55 11 73 13 97 16 118 20 132 2 8 6 37 10 64 3 27 8 52 9
55 2 3 7 26 10 51 3 25 10 60 15 78 5 17 8 32 6 32 -3 0 0 11 5 25 5 14 12 36
14 48 2 12 10 42 17 67 7 25 14 50 15 55 2 16 23 68 40 98 8 15 12 27 7 27 -4
0 -3 4 2 8 14 9 58 72 51 72 -2 0 8 13 22 28 15 16 34 37 42 48 49 63 58 73
61 71 2 -1 18 11 34 27 17 16 24 26 16 21 -10 -5 -12 -4 -7 3 4 7 12 12 18 12
6 0 19 10 29 21 10 12 33 32 51 45 17 13 28 24 22 24 -5 0 1 6 12 13 31 17
218 160 226 172 4 5 11 10 15 10 12 1 49 24 38 25 -5 0 -44 7 -85 16 -41 8
-87 17 -102 19 -15 2 -35 6 -45 9 -10 3 -34 7 -53 10 -19 3 -46 8 -60 11 -62
13 -158 30 -212 39 -13 1 -36 6 -53 9 -16 4 -48 9 -70 12 -22 2 -51 7 -65 10
-13 2 -42 7 -65 10 -22 4 -51 8 -65 10 -212 31 -200 31 -201 -2 -1 -15 -2 -39
-4 -53 -2 -14 -6 -50 -9 -80 -3 -30 -8 -71 -11 -90 -5 -37 -12 -94 -20 -175
-3 -27 -8 -66 -10 -85 -6 -43 -14 -112 -20 -164 -3 -21 -7 -57 -10 -80 -3 -23
-8 -57 -10 -76 -2 -19 -9 -73 -15 -120 -13 -100 -15 -116 -35 -280 -22 -180
-26 -203 -30 -220 -2 -8 -6 -42 -10 -75 -3 -33 -7 -67 -10 -75 -2 -8 -7 -40
-10 -70 -6 -57 -9 -76 -19 -146 -4 -23 -9 -59 -12 -80 -3 -22 -7 -50 -9 -64
-2 -14 -6 -47 -10 -75 -4 -27 -9 -63 -11 -80 -3 -16 -7 -43 -10 -60 -2 -16 -5
-39 -8 -50 -3 -19 -12 -81 -20 -150 -2 -16 -9 -57 -15 -90 -6 -33 -13 -82 -16
-109 -4 -27 -11 -72 -16 -100 -6 -28 -13 -62 -15 -76 -3 -13 -10 -30 -16 -38
-20 -23 -26 -5 -54 158 -8 47 -17 105 -20 130 -2 25 -7 52 -9 60 -2 8 -7 38
-11 65 -3 28 -7 57 -9 65 -1 8 -6 40 -10 70 -4 30 -9 64 -11 75 -2 11 -6 40
-9 65 -3 25 -9 59 -12 75 -3 17 -7 41 -8 55 -5 49 -31 230 -40 280 -2 14 -7
48 -10 75 -3 28 -7 61 -10 75 -2 14 -7 48 -10 75 -3 28 -10 79 -15 115 -5 36
-12 90 -15 120 -3 30 -8 62 -10 70 -2 8 -7 40 -10 70 -3 30 -13 109 -21 175
-17 133 -18 138 -34 280 -7 55 -13 111 -15 125 -2 14 -6 50 -9 80 -4 30 -9 71
-12 90 -2 19 -7 55 -9 80 -3 24 -7 67 -11 95 -11 84 -12 99 -13 133 -1 30 -3
32 -31 30 -17 -1 -32 -3 -33 -4z"/>
<path d="M4873 11532 c-10 -15 -28 -38 -40 -52 -13 -14 -30 -39 -38 -56 -8
-18 -22 -35 -31 -38 -8 -3 -12 -10 -9 -16 3 -5 2 -10 -3 -10 -5 0 -22 -19 -38
-42 -16 -24 -33 -46 -39 -50 -5 -4 -7 -8 -3 -8 4 0 -4 -12 -17 -26 -25 -27
-34 -86 -17 -109 14 -20 107 -82 165 -110 31 -15 60 -32 63 -36 3 -5 10 -7 15
-4 5 4 9 2 9 -3 0 -8 16 -16 43 -20 4 -1 15 -8 23 -17 9 -8 19 -13 24 -10 5 3
10 1 12 -3 3 -9 298 -164 298 -156 0 2 9 -4 20 -14 12 -9 24 -17 28 -17 4 0
12 -3 17 -7 6 -3 73 -38 150 -78 77 -40 146 -77 153 -82 6 -6 12 -7 12 -3 0 5
8 2 18 -6 28 -23 82 -51 82 -42 0 4 4 4 8 -2 13 -18 98 -63 113 -61 4 1 16 -8
28 -18 12 -11 21 -16 21 -12 0 4 7 0 16 -8 8 -9 19 -14 24 -11 5 3 10 1 12 -3
4 -10 264 -145 274 -142 4 1 10 -2 13 -8 3 -5 87 -51 186 -102 99 -51 207
-107 240 -125 75 -41 222 -115 232 -117 5 -1 14 -8 21 -15 8 -7 18 -11 23 -8
5 4 9 2 9 -3 0 -4 15 -16 34 -25 l35 -16 -5 37 c-2 20 -6 51 -8 67 -7 56 -17
130 -21 155 -3 14 -7 48 -10 75 -4 28 -8 57 -10 65 -3 8 -7 33 -11 55 -15 97
-20 120 -26 115 -3 -3 -14 2 -24 11 -11 8 -41 26 -69 40 -27 13 -56 30 -63 37
-8 7 -18 10 -23 7 -5 -4 -9 -2 -9 2 0 9 -84 54 -96 52 -4 0 -10 4 -13 9 -6 10
-110 66 -124 67 -4 0 -11 5 -15 10 -4 6 -34 24 -67 41 -127 64 -190 99 -203
112 -8 7 -18 10 -23 7 -5 -4 -9 -2 -9 2 0 10 -90 58 -102 55 -5 -1 -8 3 -8 9
0 5 -4 7 -10 4 -5 -3 -10 -2 -10 3 0 5 -8 12 -17 16 -10 3 -40 19 -68 35 -61
36 -72 37 -80 10 -4 -11 -19 -46 -33 -77 -15 -32 -27 -59 -27 -62 -1 -3 -8
-19 -18 -36 -9 -17 -13 -34 -10 -38 4 -3 1 -6 -6 -6 -7 0 -10 -4 -7 -9 3 -5
-1 -11 -9 -15 -25 -9 -18 44 16 125 17 41 39 95 49 121 l19 47 -37 21 c-20 11
-41 21 -47 22 -5 1 -15 8 -22 17 -7 9 -13 12 -13 8 0 -4 -17 4 -37 18 -21 14
-43 25 -50 25 -7 0 -13 5 -13 10 0 6 -5 10 -11 10 -6 0 -24 9 -40 21 -16 11
-29 18 -29 15 0 -3 -16 6 -36 19 -20 14 -43 25 -50 25 -8 0 -14 3 -14 8 0 4
-31 23 -68 42 -37 19 -69 37 -72 40 -3 3 -14 10 -25 16 -88 47 -111 60 -115
65 -6 6 -43 21 -49 19 -2 -1 -7 2 -10 8 -6 9 -68 46 -146 86 -22 12 -42 23
-45 26 -3 3 -24 15 -48 27 l-42 22 -17 -27z"/>
<path d="M10550 11541 c-14 -8 -28 -20 -32 -26 -4 -5 -8 -6 -8 -1 0 5 -6 4
-12 -2 -7 -5 -40 -25 -73 -43 -33 -18 -63 -36 -66 -42 -3 -5 -8 -7 -10 -6 -6
5 -123 -63 -131 -75 -4 -6 -8 -8 -8 -4 0 7 -90 -39 -100 -51 -3 -3 -30 -19
-60 -35 -30 -15 -73 -39 -95 -52 -22 -13 -48 -27 -57 -30 -10 -4 -18 -11 -18
-16 0 -5 -4 -7 -9 -4 -5 3 -14 -1 -21 -9 -7 -8 -16 -15 -21 -15 -9 0 -259
-140 -259 -145 0 -1 23 -55 50 -119 51 -120 64 -181 35 -169 -9 3 -14 8 -11
10 2 3 -4 20 -15 39 -10 19 -19 41 -19 48 0 7 -7 19 -15 26 -8 7 -12 16 -9 21
3 5 0 9 -5 9 -6 0 -10 3 -8 8 2 6 -30 87 -40 101 -5 7 -63 -21 -63 -31 0 -5
-4 -6 -10 -3 -5 3 -10 1 -10 -6 0 -7 -3 -10 -6 -7 -3 3 -47 -18 -97 -46 -51
-29 -113 -63 -139 -76 -27 -13 -48 -28 -48 -32 0 -5 -4 -7 -9 -4 -5 3 -14 -1
-21 -9 -7 -8 -16 -13 -20 -10 -5 3 -14 0 -22 -7 -7 -7 -47 -31 -88 -52 -41
-22 -78 -44 -82 -50 -4 -6 -8 -7 -8 -2 0 5 -9 1 -20 -9 -11 -10 -20 -15 -20
-11 0 4 -12 -1 -27 -11 -16 -10 -53 -32 -83 -48 -30 -16 -73 -39 -95 -51 -22
-13 -68 -37 -102 -55 -60 -31 -62 -34 -69 -78 -4 -25 -8 -55 -10 -66 -2 -11
-7 -40 -10 -65 -3 -25 -8 -53 -9 -62 -6 -30 -34 -231 -39 -281 l-5 -48 52 28
c29 15 54 31 55 36 2 4 7 5 12 2 5 -3 14 1 22 8 7 7 16 14 21 15 20 5 153 76
159 86 4 6 8 7 8 2 0 -5 8 -2 18 7 9 8 19 15 22 15 7 0 84 36 90 42 3 3 70 38
150 79 80 41 147 78 148 83 2 4 8 6 13 2 5 -3 9 0 9 6 0 6 4 9 9 5 5 -3 17 2
25 11 9 8 16 12 16 8 0 -4 9 1 21 12 12 10 23 18 25 16 2 -1 30 11 62 27 31
16 82 42 112 58 30 15 58 33 62 38 4 6 8 6 8 1 0 -5 9 -1 20 9 11 10 20 15 20
11 0 -3 17 4 38 16 20 13 55 32 77 43 22 11 43 24 47 30 4 5 8 6 8 1 0 -5 9
-1 21 10 12 10 23 18 25 17 9 -4 44 10 44 18 0 5 9 9 20 9 11 0 20 5 20 10 0
6 6 10 14 10 8 0 21 6 28 13 7 7 17 14 21 14 15 3 212 106 218 115 3 6 8 8 11
6 6 -4 81 34 89 45 3 5 9 8 13 8 7 -1 100 46 266 133 58 31 117 61 133 67 15
6 27 15 27 20 0 5 3 8 8 7 10 -4 92 44 92 54 0 4 7 8 15 8 18 0 35 39 35 78 0
15 -11 40 -25 56 -14 16 -25 32 -25 35 0 3 -11 19 -25 34 -14 15 -22 27 -18
27 4 0 3 4 -3 8 -5 4 -25 28 -44 55 -18 26 -37 47 -42 47 -4 0 -7 3 -6 8 3 10
-53 87 -72 100 -11 6 -23 4 -40 -7z"/>
<path d="M6200 11493 c-13 -27 -24 -50 -25 -53 -1 -3 -12 -27 -25 -55 -13 -27
-23 -53 -22 -57 1 -5 -2 -8 -8 -8 -5 0 -10 -4 -10 -9 0 -5 -24 -57 -52 -117
-29 -60 -53 -111 -53 -114 0 -3 -6 -14 -12 -25 -10 -19 -6 -24 40 -50 29 -16
55 -29 60 -27 4 1 7 -2 7 -8 0 -5 7 -10 15 -10 8 0 15 -4 15 -8 0 -5 28 -23
63 -41 34 -18 71 -38 82 -45 40 -24 85 -46 88 -44 1 2 13 -7 27 -19 13 -13 28
-23 33 -23 6 0 32 -13 58 -30 27 -16 49 -26 49 -22 0 4 4 2 8 -4 12 -17 110
-73 116 -67 3 4 6 1 6 -6 0 -7 4 -10 9 -6 6 3 13 -1 18 -9 4 -8 15 -16 23 -18
8 -2 23 -11 34 -20 10 -10 23 -15 28 -12 4 3 8 0 8 -6 0 -6 4 -9 9 -6 5 4 11
3 13 -2 4 -10 150 -94 155 -89 2 2 -4 39 -12 83 -9 43 -18 88 -20 99 -28 153
-79 301 -107 313 -5 2 -8 10 -8 17 0 8 -8 19 -17 24 -10 6 -14 11 -10 11 5 0
2 6 -5 14 -7 8 -29 33 -48 56 -51 63 -240 248 -240 236 0 -3 -17 11 -37 31
-21 19 -57 49 -80 66 -24 17 -43 34 -43 39 0 5 -4 7 -9 4 -5 -4 -11 -3 -13 1
-4 11 -68 63 -77 63 -4 0 -18 -21 -31 -47z"/>
<path d="M9220 11523 c-14 -9 -27 -20 -30 -23 -3 -3 -23 -19 -45 -35 -22 -17
-52 -43 -67 -59 -16 -15 -28 -24 -28 -20 0 5 -14 -6 -30 -25 -17 -18 -30 -30
-30 -26 0 21 -221 -204 -285 -290 -17 -22 -32 -42 -36 -45 -8 -8 -70 -140 -74
-158 -2 -10 -12 -55 -23 -102 -41 -173 -54 -239 -46 -251 2 -5 39 12 80 36 42
25 80 45 85 45 5 0 9 4 9 9 0 5 11 12 25 15 14 4 25 11 25 16 0 6 6 10 14 10
14 0 122 62 140 80 6 6 18 10 28 10 10 0 18 4 18 8 0 5 18 17 40 27 22 10 40
22 40 27 0 4 3 7 8 6 9 -3 194 102 203 115 3 5 8 7 10 6 4 -4 190 100 199 111
3 3 15 10 27 15 l23 10 -23 45 c-12 25 -26 48 -32 52 -5 4 -7 8 -3 8 4 0 -11
37 -34 83 -23 45 -43 84 -44 87 -1 3 -5 15 -9 28 -4 12 -11 22 -16 22 -5 0 -8
3 -7 8 4 9 -74 172 -82 172 -3 0 -17 -8 -30 -17z"/>
<path d="M4629 10931 c-8 -9 -33 -41 -54 -71 -44 -62 -40 -56 -94 -126 -22
-29 -37 -55 -34 -58 4 -3 2 -6 -4 -6 -5 0 -36 -37 -69 -82 -32 -46 -62 -84
-66 -86 -5 -2 -8 -8 -8 -13 0 -8 -20 -35 -47 -64 -7 -8 -13 -19 -13 -25 0 -6
-3 -9 -7 -7 -5 3 -19 0 -33 -6 -14 -5 -29 -11 -35 -12 -5 -2 -23 -9 -40 -16
-16 -6 -34 -13 -40 -14 -21 -5 -109 -36 -119 -43 -6 -3 -19 -8 -29 -9 -10 -2
-31 -10 -48 -18 -16 -9 -29 -13 -29 -10 0 3 -10 0 -22 -7 -13 -7 -25 -12 -28
-13 -32 -2 -173 -65 -146 -65 5 0 3 -7 -5 -16 -10 -13 -10 -17 2 -25 8 -5 10
-9 4 -9 -5 -1 4 -8 20 -17 17 -10 33 -16 38 -15 4 1 7 -3 7 -8 0 -6 4 -10 9
-10 5 0 47 -22 94 -50 47 -27 90 -50 96 -50 6 0 11 -3 11 -7 0 -5 19 -17 43
-28 23 -11 44 -22 47 -25 9 -10 172 -100 181 -100 5 0 9 -4 9 -10 0 -5 4 -10
9 -10 5 0 43 -20 85 -45 42 -24 76 -41 76 -37 0 4 4 2 8 -3 10 -15 166 -105
180 -105 7 0 12 -3 12 -8 0 -4 34 -25 75 -47 41 -22 75 -43 75 -47 0 -5 9 -8
20 -8 11 0 20 -4 20 -9 0 -5 15 -14 33 -22 17 -7 34 -16 37 -20 8 -10 74 -43
83 -41 4 1 7 -1 7 -6 0 -4 17 -16 38 -27 20 -11 40 -24 44 -30 4 -5 8 -6 8 -1
0 5 8 2 18 -6 9 -9 34 -25 55 -37 20 -12 54 -30 75 -42 20 -12 43 -26 50 -31
6 -6 12 -7 12 -2 0 5 4 4 8 -2 8 -12 212 -133 225 -133 4 0 17 -10 29 -20 11
-11 25 -18 30 -15 4 3 8 0 8 -5 0 -6 7 -11 15 -11 8 0 15 -3 15 -7 0 -5 26
-21 58 -38 31 -16 59 -32 62 -35 7 -8 98 -60 107 -62 5 -1 13 -6 18 -10 29
-25 114 -75 119 -70 3 3 6 0 6 -6 0 -7 7 -12 15 -12 8 0 15 -5 15 -11 0 -5 5
-7 10 -4 6 3 10 2 10 -2 0 -5 17 -17 38 -28 20 -11 42 -23 47 -27 6 -5 58 -39
116 -77 95 -61 116 -81 125 -116 11 -44 19 -92 28 -160 4 -27 9 -61 11 -75 6
-30 11 -69 25 -180 13 -104 20 -157 25 -190 2 -14 6 -54 10 -90 4 -36 8 -78
10 -95 2 -16 7 -55 10 -85 3 -30 7 -64 9 -74 2 -18 12 -19 157 -16 265 5 2086
5 2241 0 160 -5 190 -2 193 20 2 14 14 124 20 180 1 14 5 43 8 65 4 22 9 65
12 95 3 30 7 66 10 80 4 27 14 102 20 164 3 21 7 57 11 80 8 47 10 66 18 121
3 22 8 51 11 65 28 142 25 137 125 200 30 19 57 37 60 41 3 3 21 14 40 24 19
10 37 21 40 25 3 3 32 22 65 40 33 19 62 37 63 42 2 4 9 8 16 8 7 0 21 8 32
18 11 9 25 18 32 20 16 3 95 54 104 67 4 5 8 6 8 2 0 -5 13 1 29 12 16 12 34
21 39 21 6 0 12 4 14 8 2 4 50 34 107 67 57 33 131 77 165 97 33 20 77 45 96
54 19 10 37 20 40 24 3 3 22 14 43 25 20 11 37 23 37 28 0 4 4 6 9 2 5 -3 16
2 24 10 9 8 20 15 26 15 6 0 11 5 11 11 0 5 4 8 8 5 5 -3 19 4 30 15 12 11 22
17 22 14 0 -5 49 23 60 35 3 3 31 18 63 35 31 16 57 33 57 37 0 4 3 7 8 6 12
-3 62 25 62 34 0 5 4 7 9 4 5 -3 14 1 21 9 7 8 17 15 22 15 11 0 129 69 138
80 3 3 20 12 38 19 17 8 32 17 32 22 0 5 3 8 8 7 9 -3 124 62 133 75 3 5 10 9
15 9 13 -1 258 140 266 152 4 6 8 7 8 3 0 -5 12 0 28 10 54 36 67 43 95 54 15
6 27 15 27 21 0 5 4 7 8 4 5 -3 18 2 28 12 11 9 24 18 30 19 16 3 138 76 146
88 4 5 8 7 8 2 0 -9 49 20 73 45 17 18 17 19 -2 46 -13 18 -40 35 -83 49 -55
19 -147 52 -417 148 -34 12 -74 34 -87 49 -14 14 -22 26 -20 26 6 0 -17 31
-46 62 -10 10 -17 19 -16 21 3 2 -49 75 -62 87 -3 3 -18 24 -34 48 -16 23 -33
42 -38 42 -5 0 -6 5 -3 10 3 6 -1 13 -9 16 -9 3 -16 12 -16 20 0 7 -8 18 -17
23 -10 6 -15 11 -11 11 8 0 -12 27 -44 62 -10 10 -18 20 -17 24 0 3 -12 20
-26 39 -19 23 -34 32 -50 30 -23 -2 -122 -93 -117 -107 1 -5 -2 -7 -6 -5 -4 1
-22 -12 -39 -30 l-31 -32 15 -68 c35 -169 36 -383 2 -541 -6 -30 -12 -59 -13
-65 -1 -7 -4 -16 -7 -22 -9 -15 -29 -79 -28 -89 0 -5 -3 -12 -8 -15 -14 -10
-45 -71 -36 -71 4 0 3 -4 -3 -8 -6 -4 -24 -27 -41 -52 -41 -59 -130 -160 -136
-154 -3 3 -14 -6 -25 -20 -11 -15 -23 -26 -27 -26 -5 0 -23 -11 -41 -25 -18
-14 -37 -25 -41 -25 -5 0 -19 -9 -31 -20 -12 -12 -22 -18 -22 -14 0 3 -10 0
-22 -8 -35 -22 -155 -65 -233 -83 -118 -27 -250 -36 -349 -23 -33 5 -76 10
-96 13 -71 9 -244 59 -268 78 -7 5 -15 7 -19 4 -3 -4 -11 -2 -18 3 -11 9 -51
-36 -99 -111 -17 -27 -64 -175 -71 -221 -2 -15 -7 -37 -10 -50 -4 -12 -8 -37
-10 -55 -3 -43 -12 -52 -24 -22 -10 26 -7 135 4 184 4 17 8 35 9 40 2 6 8 30
15 55 8 25 14 50 16 55 1 6 7 23 13 38 7 16 12 30 12 33 0 4 26 37 48 59 22
24 13 41 -35 64 -27 12 -66 33 -88 46 -22 12 -42 22 -45 21 -3 0 -19 11 -35
26 -16 15 -32 25 -37 22 -4 -3 -8 0 -8 5 0 6 -7 11 -16 11 -8 0 -12 -4 -9 -10
3 -5 2 -10 -2 -10 -10 0 -42 -52 -48 -78 -3 -9 -9 -34 -14 -55 -24 -100 -2
-338 50 -527 12 -41 22 -79 23 -85 6 -28 40 -138 63 -202 16 -47 30 -70 37
-66 6 4 25 17 42 30 26 19 33 21 43 10 6 -8 8 -16 6 -19 -3 -3 -7 -18 -9 -34
-12 -85 -27 -124 -50 -124 -10 0 -191 -122 -194 -131 -2 -5 -10 -9 -18 -9 -8
0 -14 -4 -14 -10 0 -5 -5 -10 -11 -10 -9 0 -72 -42 -89 -60 -3 -3 -27 -21 -55
-40 -94 -65 -136 -106 -128 -126 6 -17 2 -18 54 6 52 24 82 42 90 53 3 5 8 7
10 6 6 -4 145 78 163 96 8 9 17 15 18 13 6 -4 68 36 68 45 0 4 4 6 9 3 5 -3
20 5 35 19 14 13 26 22 26 19 0 -2 12 3 26 13 l26 17 -7 -35 c-4 -18 -11 -36
-16 -37 -5 -2 -15 -9 -22 -16 -6 -7 -27 -21 -44 -31 -18 -11 -33 -23 -33 -27
0 -4 -6 -8 -14 -8 -8 0 -16 -4 -18 -8 -1 -4 -20 -18 -40 -31 -21 -12 -38 -27
-38 -32 0 -6 -4 -8 -9 -4 -6 3 -14 -3 -20 -12 -6 -10 -11 -15 -11 -11 0 8
-161 -100 -171 -114 -3 -6 -10 -9 -15 -9 -5 1 -16 -5 -25 -13 -9 -8 -26 -17
-38 -21 -12 -3 -21 -11 -21 -16 0 -5 -5 -9 -10 -9 -12 0 -94 -52 -98 -63 -2
-4 -7 -5 -12 -2 -5 3 -15 -1 -22 -8 -8 -8 -30 -20 -51 -28 -20 -7 -37 -16 -37
-20 0 -3 -12 -9 -27 -12 -208 -45 -265 -51 -433 -51 -145 1 -249 11 -345 35
-62 16 -148 49 -165 64 -8 7 -22 15 -30 17 -8 2 -17 6 -20 9 -9 9 -164 104
-170 103 -3 -1 -10 6 -17 15 -7 9 -13 13 -13 9 0 -5 -12 2 -26 15 -14 12 -28
20 -31 19 -3 -2 -9 0 -12 5 -10 14 -81 64 -81 58 0 -4 -6 0 -14 7 -7 7 -24 20
-36 28 -12 8 -42 30 -66 48 -24 18 -44 30 -44 27 0 -4 -7 1 -16 9 -12 13 -55
43 -110 80 -1 1 -5 17 -9 35 -7 35 -7 35 16 19 13 -8 35 -21 48 -29 14 -8 34
-22 45 -31 10 -10 22 -15 26 -13 5 3 10 -2 14 -10 3 -8 12 -15 19 -15 8 0 20
-7 27 -15 7 -9 15 -13 17 -11 3 3 13 -3 23 -12 21 -20 250 -147 265 -147 19
-1 23 19 8 42 -8 13 -22 23 -29 23 -8 0 -14 4 -14 8 0 5 -25 26 -56 48 -30 21
-61 44 -69 51 -7 7 -15 9 -19 6 -3 -4 -6 -2 -6 4 0 5 -33 32 -72 58 -40 27
-76 54 -80 60 -4 5 -8 6 -8 2 0 -5 -7 -2 -15 6 -8 8 -31 25 -52 38 -21 13 -40
26 -43 30 -3 3 -19 13 -36 22 -34 17 -39 30 -49 120 -8 66 -2 69 52 32 20 -13
38 -23 39 -22 3 4 76 220 79 236 2 9 4 16 5 16 1 0 3 7 5 15 2 8 13 49 24 90
12 41 24 91 27 110 3 19 12 69 19 110 29 164 8 355 -46 432 -21 29 -38 30 -66
6 -26 -23 -88 -60 -170 -102 -65 -34 -72 -40 -62 -57 6 -11 17 -23 25 -26 7
-3 12 -9 9 -13 -3 -4 2 -13 10 -20 16 -13 46 -99 72 -205 19 -80 25 -191 11
-218 -15 -29 -17 -24 -32 73 -3 19 -10 50 -15 68 -5 18 -10 33 -10 35 1 5 -13
64 -18 77 -3 8 -7 20 -8 25 -7 31 -50 105 -80 140 -19 22 -35 43 -35 47 0 4
-30 -4 -67 -18 -38 -13 -76 -27 -87 -29 -10 -2 -43 -11 -73 -20 -155 -45 -381
-50 -538 -11 -5 2 -23 6 -40 10 -16 5 -50 15 -75 24 -25 9 -47 17 -50 18 -3 0
-23 9 -45 19 -22 9 -42 18 -45 18 -3 1 -9 5 -15 9 -22 18 -85 57 -85 53 0 -3
-8 3 -18 13 -27 25 -56 47 -64 50 -13 4 -48 41 -48 51 0 5 -9 13 -20 16 -11 3
-20 12 -20 18 0 7 -15 29 -34 49 -19 20 -31 39 -28 42 3 3 0 6 -6 6 -7 0 -12
7 -12 15 0 8 -4 15 -10 15 -5 0 -9 3 -8 8 1 4 -11 34 -27 67 -28 61 -62 165
-70 220 -3 17 -9 56 -13 89 -10 63 -8 264 4 336 12 77 13 84 19 114 3 16 8 33
11 37 6 10 -60 79 -76 79 -7 0 -11 2 -8 5 9 9 -84 98 -106 100 -11 1 -28 -5
-37 -14z"/>
<path d="M2530 10929 c-25 -4 -70 -11 -100 -14 -30 -4 -58 -9 -61 -11 -4 -2
-27 -6 -50 -9 -24 -3 -55 -7 -69 -10 -14 -3 -41 -7 -60 -9 -19 -3 -51 -8 -70
-11 -19 -4 -46 -8 -60 -10 -14 -1 -38 -5 -55 -8 -26 -6 -61 -11 -130 -21 -11
-2 -40 -7 -65 -11 -50 -8 -64 -10 -135 -20 -27 -3 -58 -9 -68 -11 -10 -3 -32
-7 -50 -10 -35 -4 -231 -34 -261 -40 -28 -5 -32 -14 -7 -14 13 0 59 -9 104
-21 45 -11 89 -22 97 -24 8 -2 65 -15 125 -30 61 -15 117 -29 125 -30 8 -1 22
-5 30 -7 21 -8 100 -29 122 -33 10 -2 46 -11 81 -20 34 -9 67 -18 72 -19 6 -1
16 -5 23 -10 7 -4 16 -5 19 -2 3 3 12 1 20 -5 7 -6 13 -8 13 -5 0 4 8 2 18 -3
11 -6 30 -12 43 -15 26 -5 138 -37 294 -86 55 -17 107 -32 115 -35 36 -10 82
-26 190 -65 63 -23 120 -42 125 -44 6 -1 21 -8 35 -16 14 -7 27 -13 30 -13 8
1 45 -14 92 -37 23 -11 47 -20 54 -20 7 0 14 -6 17 -12 2 -7 8 -10 12 -6 7 7
-72 168 -90 180 -5 4 -6 8 -1 8 5 0 2 8 -6 18 -8 9 -34 50 -57 90 -24 39 -47
72 -52 72 -5 0 -8 4 -7 8 4 11 -113 172 -124 172 -5 0 -7 4 -3 9 3 6 0 13 -7
18 -7 4 -31 31 -53 58 -21 28 -49 60 -62 72 -13 12 -23 27 -23 33 0 6 -4 9 -9
5 -5 -3 -12 4 -16 15 -7 22 -26 24 -105 9z"/>
<path d="M12830 10908 c-14 -16 -32 -37 -40 -46 -46 -49 -121 -142 -116 -142
3 0 -2 -8 -11 -18 -46 -48 -103 -129 -96 -136 3 -3 -2 -8 -11 -12 -9 -3 -13
-10 -10 -15 3 -5 0 -9 -6 -9 -5 0 -18 -16 -27 -35 -9 -19 -20 -35 -25 -35 -4
0 -8 -6 -8 -14 0 -8 -7 -21 -15 -29 -8 -8 -16 -21 -17 -28 -2 -7 -9 -20 -16
-28 -7 -9 -12 -20 -11 -25 0 -5 -4 -12 -9 -15 -9 -6 -82 -144 -82 -156 0 -3
15 2 33 12 17 9 37 18 42 19 6 1 36 14 68 28 31 14 58 26 60 26 1 0 38 14 82
31 44 17 96 35 115 41 19 5 40 13 45 16 6 4 16 7 23 8 8 2 21 6 30 10 19 8 27
11 57 18 11 2 40 12 65 21 25 9 52 18 60 20 8 2 117 33 242 69 125 36 237 68
250 70 13 3 48 12 78 21 30 8 69 18 85 21 17 3 53 11 80 19 28 8 61 17 75 19
89 19 370 91 370 96 0 3 -12 7 -27 8 -16 1 -39 4 -53 7 -14 3 -83 14 -155 25
-71 12 -143 23 -160 26 -16 3 -46 7 -65 10 -19 2 -61 9 -93 15 -32 5 -74 12
-95 15 -20 2 -44 6 -52 9 -8 2 -37 7 -65 10 -27 3 -61 7 -75 10 -14 3 -36 7
-50 10 -24 4 -74 11 -140 20 -17 2 -46 7 -63 11 -18 4 -43 8 -57 9 -14 2 -54
8 -90 14 -87 15 -91 14 -120 -21z"/>
<path d="M4906 10684 c-27 -71 -28 -370 -1 -484 3 -14 8 -34 9 -45 12 -70 92
-247 132 -290 12 -13 20 -25 18 -27 -4 -5 82 -95 131 -136 49 -41 156 -108
167 -105 4 2 8 -1 8 -5 0 -7 59 -33 77 -33 5 -1 13 -4 18 -8 8 -7 44 -18 65
-21 3 0 28 -7 55 -16 82 -25 271 -27 404 -4 63 11 120 25 128 31 7 6 13 9 13
6 0 -5 60 13 100 30 8 3 18 7 22 7 20 3 14 18 -23 55 -23 22 -45 41 -50 41 -4
0 -12 6 -16 14 -10 17 -103 89 -103 79 0 -4 -6 2 -14 12 -16 22 -26 24 -126
30 -133 9 -151 11 -250 30 -14 2 -43 9 -65 16 -22 6 -52 13 -67 16 -16 3 -28
9 -28 13 0 4 -18 13 -40 20 -22 7 -40 16 -40 20 0 4 -12 13 -27 21 -55 28
-130 99 -165 155 -14 22 -39 82 -57 134 -17 52 -35 102 -38 110 -3 8 -7 17 -8
20 -13 36 -40 85 -55 100 -11 11 -21 23 -22 28 -1 7 -108 153 -119 162 -3 3
-10 13 -16 24 -10 17 -10 17 -17 0z"/>
<path d="M10560 10694 c0 -5 -9 -20 -20 -32 -12 -12 -18 -22 -15 -22 3 0 -3
-8 -12 -18 -30 -32 -53 -62 -47 -62 3 0 -1 -6 -8 -14 -25 -25 -72 -88 -86
-115 -13 -24 -91 -233 -96 -256 -1 -5 -12 -29 -24 -53 -29 -54 -85 -111 -159
-159 -32 -21 -60 -41 -63 -44 -3 -3 -36 -17 -75 -32 -109 -40 -114 -41 -260
-62 -22 -3 -81 -7 -132 -9 -73 -3 -99 -8 -127 -25 -20 -13 -36 -27 -36 -32 0
-6 -4 -8 -9 -4 -5 3 -17 -5 -25 -17 -9 -12 -16 -18 -16 -13 0 6 -3 6 -8 0 -4
-6 -24 -25 -45 -43 -21 -17 -35 -32 -32 -32 3 0 -9 -13 -27 -29 -28 -25 -30
-30 -15 -35 27 -9 41 -13 50 -15 4 0 21 -8 37 -16 17 -9 30 -13 30 -11 0 3 12
1 28 -5 15 -6 38 -13 52 -16 14 -2 45 -9 70 -15 59 -13 272 -19 330 -8 25 4
59 11 75 13 37 7 153 45 180 60 11 6 26 12 34 13 8 2 17 6 20 11 3 4 26 19 51
33 25 13 50 28 55 32 6 5 26 22 45 38 19 16 38 30 42 30 4 0 10 9 13 20 4 11
10 18 15 15 12 -7 105 122 144 201 35 70 58 132 72 194 4 19 8 37 9 40 29 124
25 438 -5 490 -5 8 -10 10 -10 4z"/>
<path d="M5443 10575 c-31 -13 -29 -22 14 -61 20 -19 38 -42 39 -51 2 -10 6
-38 9 -63 8 -55 69 -190 86 -190 7 0 10 -3 6 -6 -10 -10 55 -63 113 -92 94
-46 246 -40 404 17 49 17 67 19 97 11 41 -11 74 -9 89 6 7 7 -5 18 -37 35 -26
13 -51 23 -55 21 -4 -1 -8 3 -8 10 0 6 -3 9 -6 5 -4 -3 -13 1 -21 9 -8 8 -19
12 -24 9 -5 -4 -9 -2 -9 3 0 8 -43 26 -46 19 0 -1 -8 6 -18 16 -10 9 -21 15
-26 12 -5 -3 -10 -1 -12 3 -1 5 -115 64 -253 133 -137 68 -252 127 -253 132
-2 4 -8 5 -13 1 -5 -3 -9 0 -9 6 0 6 -4 8 -10 5 -5 -3 -10 -1 -10 5 0 6 -4 9
-9 6 -5 -4 -11 -3 -13 2 -1 4 -13 3 -25 -3z"/>
<path d="M9930 10541 c-367 -184 -546 -276 -548 -283 -2 -5 -7 -6 -12 -3 -5 3
-14 0 -22 -7 -7 -7 -20 -14 -28 -16 -8 -2 -21 -9 -28 -15 -8 -6 -21 -12 -30
-13 -8 -2 -18 -8 -22 -14 -4 -7 -9 -11 -11 -9 -2 1 -17 -4 -32 -13 -26 -13
-27 -16 -12 -28 13 -11 27 -12 70 -3 47 10 61 9 112 -9 138 -49 290 -60 375
-28 47 18 141 80 122 80 -5 1 3 11 17 23 45 37 93 157 101 247 2 27 11 41 40
63 43 33 48 52 16 61 -30 8 -23 10 -108 -33z"/>
<path d="M3586 10033 c-3 -4 -12 -8 -19 -9 -13 -2 -108 -38 -142 -54 -11 -5
-69 -28 -130 -51 -60 -23 -116 -46 -122 -52 -7 -5 -13 -6 -13 -3 0 4 -10 1
-22 -6 -13 -6 -32 -13 -42 -15 -11 -2 -25 -8 -32 -14 -6 -5 -20 -11 -30 -14
-11 -2 -35 -10 -54 -18 -63 -25 -75 -30 -80 -32 -14 -3 -125 -47 -134 -53 -6
-3 -20 -8 -30 -9 -11 -2 -25 -8 -32 -14 -6 -5 -20 -12 -30 -14 -11 -2 -66 -22
-124 -45 -151 -60 -155 -62 -155 -59 0 1 -11 -4 -25 -11 -14 -8 -34 -15 -45
-17 -10 -2 -22 -7 -25 -11 -3 -4 -9 -8 -15 -9 -17 -3 -110 -38 -115 -43 -3 -3
-12 -6 -20 -8 -8 -1 -24 -6 -35 -11 -11 -5 -36 -16 -55 -24 -19 -9 -47 -19
-63 -22 -15 -4 -30 -11 -33 -16 -3 -5 -10 -7 -15 -4 -5 4 -9 2 -9 -4 0 -6 -7
-8 -15 -5 -8 4 -15 1 -15 -5 0 -6 -8 -11 -18 -11 -10 0 -22 -3 -26 -7 -3 -4
-12 -8 -19 -9 -7 -1 -25 -8 -42 -15 -16 -6 -34 -13 -40 -15 -5 -1 -28 -10 -50
-19 -22 -10 -42 -17 -45 -17 -3 0 -14 -5 -25 -11 -11 -6 -22 -12 -25 -13 -3 0
-12 -3 -20 -7 -8 -3 -42 -15 -74 -27 -33 -12 -64 -24 -70 -28 -6 -3 -15 -7
-21 -8 -8 -2 -188 -72 -280 -109 -11 -5 -23 -7 -27 -7 -5 1 -8 -2 -8 -6 0 -5
-6 -9 -12 -9 -10 0 -195 -70 -313 -118 -11 -5 -22 -9 -25 -10 -3 -1 -18 -7
-33 -13 -16 -7 -31 -12 -34 -12 -3 0 -19 -6 -36 -14 -28 -12 -62 -26 -77 -31
-6 -2 -59 -23 -80 -32 -8 -3 -19 -7 -25 -9 -5 -1 -23 -8 -40 -15 -16 -7 -33
-12 -37 -11 -5 1 -8 -3 -8 -10 0 -6 -3 -8 -6 -5 -4 3 -16 1 -28 -5 -11 -7 -24
-13 -28 -14 -5 -1 -10 -3 -13 -4 -3 -1 -8 -3 -12 -4 -30 -7 -83 -29 -83 -34 0
-5 5353 -7 5594 -3 16 1 26 4 22 9 -4 4 -11 7 -14 7 -4 0 -18 8 -32 16 -96 62
-280 167 -280 161 0 -4 -4 -2 -8 4 -4 6 -29 23 -57 39 -27 16 -58 35 -67 43
-10 8 -18 12 -18 8 0 -4 -10 2 -22 13 -11 11 -25 18 -30 15 -4 -3 -8 -1 -8 4
0 5 -8 12 -17 16 -10 3 -31 15 -48 26 -16 11 -41 26 -55 33 -14 6 -37 20 -52
30 -68 42 -84 51 -95 53 -6 1 -22 11 -34 23 -13 12 -26 21 -30 21 -5 0 -60 31
-124 70 -63 38 -115 66 -115 62 0 -4 -5 1 -11 11 -6 9 -14 15 -20 12 -5 -4 -9
-2 -9 3 0 5 -8 12 -17 16 -10 3 -57 30 -105 60 -48 29 -90 51 -93 48 -3 -3 -5
0 -5 6 0 7 -4 12 -10 12 -5 0 -29 13 -52 29 -24 16 -46 27 -50 25 -5 -3 -8 -1
-8 4 0 9 -50 37 -62 34 -5 -1 -8 2 -8 6 0 5 -19 19 -42 32 -24 13 -86 50 -139
82 -54 32 -102 58 -108 58 -6 0 -11 5 -11 11 0 5 -4 7 -10 4 -5 -3 -10 -3 -10
2 0 4 -21 19 -47 33 -27 14 -52 28 -58 33 -29 23 -246 147 -258 147 -7 0 -17
-3 -21 -7z"/>
<path d="M11765 9985 c-49 -29 -96 -58 -102 -65 -7 -6 -13 -7 -13 -3 0 4 -7
-1 -15 -11 -8 -11 -15 -16 -15 -12 0 4 -20 -7 -44 -23 -24 -17 -46 -27 -49
-24 -4 3 -9 -2 -13 -11 -3 -9 -9 -14 -14 -11 -4 2 -17 -5 -28 -16 -12 -11 -22
-17 -22 -14 0 4 -13 -3 -29 -14 -16 -12 -31 -21 -34 -21 -2 0 -57 -31 -121
-70 -64 -38 -120 -70 -125 -70 -5 0 -11 -7 -15 -15 -3 -8 -9 -14 -13 -13 -12
3 -63 -24 -63 -34 0 -4 -6 -8 -14 -8 -8 0 -22 -7 -30 -16 -9 -8 -16 -13 -16
-10 0 5 -61 -33 -85 -52 -5 -4 -13 -9 -18 -10 -4 -1 -46 -24 -92 -52 -47 -27
-90 -50 -95 -50 -5 0 -14 -8 -19 -17 -6 -10 -11 -15 -11 -11 0 3 -41 -18 -90
-48 -50 -30 -95 -54 -100 -54 -6 0 -10 -4 -10 -8 0 -5 -18 -17 -40 -27 -22
-10 -40 -22 -40 -27 0 -4 -6 -8 -14 -8 -8 0 -21 -7 -30 -15 -8 -9 -19 -16 -23
-16 -12 -1 -197 -112 -205 -124 -4 -5 -8 -6 -8 -2 0 5 -13 -1 -29 -12 -16 -12
-34 -21 -40 -21 -6 0 -11 -4 -11 -10 0 -5 -5 -10 -10 -10 -6 0 -34 -15 -63
-33 -29 -18 -76 -46 -104 -62 -29 -15 -53 -32 -53 -37 0 -5 -4 -6 -10 -3 -5 3
-10 1 -10 -5 0 -6 -4 -8 -10 -5 -5 3 -10 2 -10 -3 0 -6 -10 -12 -23 -16 -12
-3 -32 -14 -44 -25 -11 -11 -23 -18 -25 -16 -2 2 -13 -4 -26 -13 -20 -16 154
-17 2798 -17 1550 0 2816 3 2812 7 -6 5 -177 73 -207 82 -5 2 -23 9 -40 16
-16 7 -33 14 -37 15 -5 2 -10 4 -13 5 -3 1 -8 3 -12 5 -5 1 -21 7 -36 13 -16
7 -31 12 -34 12 -3 0 -19 6 -36 14 -38 18 -188 77 -202 80 -18 5 -124 47 -193
77 -23 11 -50 20 -60 22 -9 1 -21 5 -27 9 -15 8 -145 60 -158 62 -7 1 -21 7
-32 13 -11 6 -38 16 -60 23 -22 7 -44 16 -50 20 -9 6 -130 53 -145 56 -3 0
-16 5 -30 11 -50 22 -135 55 -145 57 -5 2 -21 8 -35 14 -23 11 -200 80 -405
159 -49 19 -99 38 -110 43 -11 5 -81 32 -155 60 -74 29 -144 56 -155 60 -44
19 -190 75 -195 75 -3 1 -15 6 -27 13 -13 7 -23 10 -23 7 0 -3 -10 1 -23 10
-12 8 -32 16 -42 18 -11 2 -31 9 -45 17 -14 7 -27 13 -30 13 -5 0 -21 6 -75
28 -51 20 -241 94 -245 95 -3 0 -18 6 -35 13 -16 7 -34 14 -40 15 -5 2 -21 8
-35 14 -72 30 -186 72 -195 71 -5 0 -50 -25 -100 -54z"/>
<path d="M6488 9844 c-7 -6 -54 -11 -203 -20 -55 -3 -103 -9 -107 -13 -4 -3
21 -37 55 -74 34 -38 72 -80 83 -93 20 -23 23 -23 38 -9 9 9 16 14 16 11 0 -8
83 34 173 86 66 38 68 41 52 58 -10 11 -35 28 -57 40 -43 22 -42 22 -50 14z"/>
<path d="M8940 9828 c-18 -9 -37 -22 -40 -29 -4 -6 -11 -10 -16 -10 -20 2 -7
-21 21 -37 17 -9 32 -20 33 -24 2 -5 8 -8 14 -8 5 0 22 -9 36 -19 15 -10 29
-19 32 -19 3 0 32 -13 66 -29 l61 -30 19 22 c10 12 42 48 69 80 28 32 56 64
64 72 7 8 12 16 10 17 -2 2 -53 7 -114 10 -60 3 -135 10 -166 14 -46 7 -62 5
-89 -10z"/>
<path d="M4910 8377 c-3 -3 -21 -9 -40 -12 -19 -3 -66 -19 -104 -36 -39 -16
-74 -29 -77 -29 -4 0 -28 -10 -55 -22 -27 -12 -53 -23 -59 -24 -5 -1 -28 -10
-50 -19 -53 -23 -89 -38 -95 -40 -3 -1 -18 -7 -35 -14 -16 -6 -50 -19 -75 -28
-25 -9 -49 -20 -55 -23 -5 -4 -28 -13 -50 -20 -22 -7 -53 -20 -70 -28 -16 -9
-39 -17 -49 -19 -11 -2 -25 -8 -31 -13 -7 -5 -15 -7 -18 -3 -4 3 -7 1 -7 -5 0
-7 -3 -11 -7 -10 -7 2 -76 -23 -158 -58 -79 -33 -412 -165 -425 -169 -8 -2
-40 -15 -70 -29 -30 -14 -61 -26 -68 -26 -7 0 -20 -4 -30 -10 -9 -5 -55 -25
-102 -43 -47 -19 -94 -38 -105 -42 -11 -5 -23 -7 -27 -7 -5 1 -8 -3 -8 -10 0
-6 -3 -9 -6 -5 -3 3 -31 -5 -61 -19 -31 -13 -62 -24 -69 -24 -8 0 -14 -4 -14
-10 0 -5 -10 -10 -22 -10 -18 0 -38 -23 -88 -96 -36 -52 -75 -107 -87 -122
-13 -15 -23 -30 -23 -33 0 -3 -9 -16 -20 -29 -11 -13 -20 -29 -20 -35 0 -7 -7
-15 -15 -19 -8 -3 -15 -12 -15 -20 0 -7 -7 -17 -16 -20 -9 -4 -14 -9 -11 -12
3 -4 -5 -18 -18 -32 -13 -14 -22 -29 -19 -34 3 -4 1 -8 -5 -8 -5 0 -20 -17
-32 -37 -13 -21 -28 -41 -33 -45 -7 -5 -7 -8 -1 -8 6 0 2 -5 -7 -11 -10 -5
-18 -14 -18 -19 0 -5 -11 -21 -25 -36 -13 -14 -23 -29 -22 -33 1 -3 -10 -20
-25 -36 -16 -16 -28 -34 -28 -38 0 -5 -6 -15 -12 -22 -27 -30 -38 -44 -38 -50
0 -3 -25 -40 -55 -81 -30 -40 -52 -74 -48 -74 5 0 3 -4 -2 -8 -16 -11 -78 -92
-70 -92 3 0 -6 -12 -20 -27 -14 -16 -28 -36 -31 -45 -3 -10 -9 -18 -14 -18 -5
0 -12 -9 -15 -20 -3 -11 -12 -26 -19 -32 -6 -7 -36 -49 -66 -93 -30 -44 -58
-84 -63 -90 -4 -5 -23 -31 -43 -57 -19 -27 -32 -48 -29 -48 3 0 -5 -12 -19
-26 -13 -15 -30 -38 -38 -53 -7 -14 -20 -33 -28 -42 -31 -36 -40 -48 -40 -57
0 -5 -9 -17 -20 -27 -11 -10 -20 -24 -20 -31 0 -7 -3 -14 -7 -16 -11 -4 -65
-78 -58 -78 3 0 -4 -10 -15 -22 -12 -13 -31 -39 -43 -58 -11 -19 -23 -37 -27
-40 -17 -15 -60 -80 -53 -80 4 0 0 -5 -9 -11 -10 -5 -18 -16 -18 -24 0 -7 -4
-15 -8 -17 -4 -1 -28 -32 -52 -68 -25 -36 -47 -67 -50 -70 -3 -3 -23 -32 -45
-65 -22 -32 -45 -66 -52 -75 -36 -46 -121 -170 -117 -170 3 0 -6 -12 -20 -27
-14 -14 -33 -41 -43 -60 -9 -18 -21 -33 -25 -33 -5 0 -8 -6 -8 -14 0 -8 -7
-17 -16 -20 -9 -4 -14 -9 -11 -12 3 -4 1 -12 -6 -19 -22 -23 -52 -68 -52 -77
0 -5 -5 -12 -12 -16 -15 -10 -64 -82 -55 -82 3 0 -4 -7 -16 -16 -12 -8 -20
-20 -17 -25 4 -5 2 -9 -2 -9 -5 0 -17 -13 -26 -30 -10 -16 -23 -35 -30 -42
-18 -21 -57 -76 -57 -83 0 -4 -6 -13 -12 -20 -31 -34 -36 -43 -31 -49 4 -3 2
-6 -4 -6 -10 0 -49 -54 -62 -85 -2 -5 -11 -16 -20 -23 -13 -11 -13 -12 -1 -5
22 12 104 67 110 74 3 3 20 14 38 24 17 11 32 23 32 28 0 4 4 5 10 2 5 -3 10
-1 10 4 0 6 4 11 9 11 8 0 127 77 166 107 6 4 172 116 370 247 198 131 361
243 363 247 2 5 10 9 18 9 8 0 14 5 14 11 0 5 5 7 10 4 6 -3 10 -2 10 2 0 5
16 17 35 27 19 11 35 23 35 28 0 4 7 8 15 8 9 0 18 7 21 15 4 8 9 13 14 10 4
-2 16 5 28 15 12 11 25 20 29 20 5 0 20 11 35 24 14 14 28 23 30 20 3 -2 17 7
32 21 14 13 29 24 32 24 11 0 104 65 104 73 0 5 5 6 10 3 6 -3 10 -1 10 4 0 6
7 11 15 11 7 0 18 6 22 14 4 8 11 15 16 15 10 1 160 102 168 114 3 5 9 7 12 5
3 -1 17 7 31 19 14 13 26 20 26 15 0 -4 7 2 15 12 8 11 15 16 15 10 0 -5 7 0
15 10 8 11 15 16 15 10 0 -5 3 -5 8 1 4 6 48 37 97 70 50 33 95 67 102 75 7 8
13 11 13 7 0 -5 18 5 39 22 21 17 44 31 49 31 6 0 16 8 21 18 6 9 11 13 11 9
0 -5 18 5 39 22 21 17 41 31 44 31 3 0 58 36 122 80 64 44 121 80 126 80 5 0
9 3 9 8 0 4 16 16 35 26 19 11 35 24 35 29 0 6 3 8 6 4 4 -3 12 -1 20 6 34 30
44 37 44 30 0 -4 4 -3 8 3 4 5 24 20 45 33 20 12 37 27 37 32 0 5 3 8 8 7 11
-3 112 63 112 73 0 6 4 8 8 5 5 -3 19 5 33 18 13 12 29 23 34 25 11 2 50 30
71 49 8 7 14 10 14 5 0 -4 7 1 15 11 8 11 15 16 15 12 0 -8 73 45 78 57 2 4 8
5 13 1 5 -3 12 2 15 10 3 9 11 16 16 16 11 0 190 120 200 135 4 5 8 6 8 2 0
-8 13 2 51 36 10 9 21 17 24 17 6 0 57 31 65 40 3 3 76 52 163 109 86 57 157
108 157 114 0 6 3 7 6 4 7 -6 106 60 112 75 2 5 7 6 12 3 4 -2 19 6 34 20 15
13 28 23 29 22 6 -4 77 48 77 56 0 4 7 7 15 7 8 0 15 5 15 11 0 5 5 7 10 4 6
-3 10 -1 10 4 0 6 6 11 13 11 7 0 23 10 37 23 14 12 37 28 53 36 15 8 27 18
27 23 0 4 7 8 15 8 8 0 15 5 15 10 0 6 4 10 9 10 6 0 47 25 93 57 226 153 304
208 310 217 5 7 8 7 8 1 0 -5 7 -1 15 9 8 11 15 16 15 12 0 -4 17 5 38 21 20
16 57 42 82 58 25 17 47 32 50 35 3 3 42 29 88 59 45 29 82 58 82 64 0 6 3 8
6 4 6 -6 76 41 82 56 2 4 8 5 13 1 5 -3 12 2 15 10 3 9 12 16 20 16 8 0 14 4
14 9 0 5 8 12 19 16 10 3 31 17 45 30 14 13 26 22 26 19 0 -3 15 6 33 20 25
19 33 32 31 53 -1 15 -3 29 -4 31 -1 1 -3 5 -4 10 -7 35 -98 126 -114 114 -3
-2 -8 1 -12 8 -11 17 -139 57 -210 65 -36 3 -76 8 -90 10 -14 2 -47 6 -75 9
-27 4 -61 8 -75 11 -26 4 -92 12 -170 20 -25 3 -61 7 -80 10 -19 3 -57 7 -85
11 -27 3 -61 8 -75 10 -49 8 -185 16 -190 11z"/>
<path d="M10448 8375 c-3 -3 -63 -10 -163 -20 -27 -3 -62 -8 -76 -10 -15 -3
-47 -7 -70 -10 -72 -8 -143 -17 -161 -20 -9 -2 -48 -7 -85 -10 -37 -4 -75 -8
-83 -11 -8 -2 -40 -6 -70 -9 -54 -6 -95 -12 -95 -15 0 -1 -10 -3 -22 -6 -35
-6 -123 -47 -123 -56 0 -5 -4 -7 -9 -3 -6 3 -14 -3 -20 -12 -6 -10 -11 -14
-11 -10 0 4 -6 2 -14 -5 -8 -7 -12 -16 -9 -20 2 -5 -3 -8 -12 -8 -9 0 -13 -4
-10 -10 3 -5 2 -10 -3 -10 -11 0 -22 -31 -27 -72 -2 -16 4 -33 16 -44 10 -9
19 -14 19 -11 0 4 8 0 18 -9 40 -36 108 -84 119 -84 6 0 13 -3 15 -7 5 -13 76
-63 87 -63 6 0 11 -4 11 -10 0 -5 4 -10 10 -10 5 0 21 -9 34 -21 13 -12 27
-20 31 -19 4 1 11 -2 14 -7 7 -11 109 -83 116 -83 3 0 15 -9 27 -20 12 -11 27
-20 34 -20 6 0 14 -7 18 -15 3 -8 12 -15 21 -15 8 0 15 -4 15 -9 0 -5 9 -13
20 -16 11 -3 26 -12 32 -19 7 -6 40 -30 73 -51 33 -22 104 -70 158 -107 53
-37 97 -65 97 -63 0 2 12 -7 27 -21 14 -13 28 -22 30 -20 2 2 16 -7 30 -20 14
-13 29 -21 34 -18 5 3 9 1 9 -4 0 -8 150 -113 175 -123 6 -2 20 -13 33 -24 13
-11 26 -19 28 -17 2 1 17 -9 32 -23 15 -14 35 -28 45 -31 9 -3 17 -10 17 -15
0 -5 10 -9 22 -9 12 0 19 -3 15 -6 -5 -5 350 -247 356 -241 1 1 16 -10 32 -25
16 -16 35 -28 42 -28 7 0 13 -4 13 -8 0 -5 12 -15 28 -23 15 -8 36 -22 46 -31
11 -10 24 -18 28 -18 5 0 21 -11 36 -25 15 -14 30 -25 35 -25 10 0 69 -41 79
-55 5 -7 8 -7 8 0 0 6 5 2 11 -8 6 -9 14 -15 19 -12 4 3 10 -2 14 -10 3 -8 12
-15 21 -15 8 0 15 -5 15 -12 0 -6 3 -9 6 -5 3 3 18 -5 32 -18 14 -13 29 -22
33 -20 4 3 9 -2 13 -10 3 -8 12 -15 21 -15 8 0 15 -4 15 -10 0 -5 7 -10 15
-10 8 0 15 -5 15 -12 0 -6 3 -9 6 -6 3 3 17 -5 31 -18 14 -13 30 -24 35 -24 5
0 16 -6 23 -12 33 -30 45 -38 45 -33 0 4 7 0 15 -8 8 -8 31 -25 52 -38 21 -13
41 -28 45 -33 4 -6 8 -7 8 -3 0 5 6 2 14 -5 7 -8 44 -34 82 -58 38 -25 71 -47
74 -50 3 -3 30 -21 60 -40 30 -19 57 -37 60 -40 8 -8 114 -76 125 -80 6 -2 19
-12 29 -22 11 -10 26 -18 33 -18 8 0 11 -4 8 -10 -3 -5 0 -10 8 -10 8 0 20 -7
27 -15 7 -9 15 -13 18 -11 2 3 11 -2 19 -10 18 -17 129 -94 137 -94 3 0 17
-10 32 -22 14 -13 26 -21 28 -18 1 3 12 -5 26 -17 13 -13 29 -23 36 -23 7 0
14 -3 16 -7 3 -9 67 -58 83 -64 12 -5 128 -82 135 -89 3 -3 28 -20 55 -38 28
-17 55 -36 62 -42 7 -5 16 -10 22 -10 5 0 11 -3 13 -7 5 -12 146 -104 153
-101 4 2 11 -5 16 -15 6 -9 14 -15 19 -12 4 3 11 -2 14 -11 3 -8 10 -12 16 -9
5 3 10 2 10 -4 0 -9 68 -56 83 -56 4 0 11 -5 15 -11 9 -14 189 -134 201 -134
5 0 11 -4 13 -8 2 -5 85 -63 185 -130 100 -67 184 -126 188 -132 3 -5 12 -10
20 -10 8 0 26 -11 41 -25 14 -13 30 -22 34 -20 5 3 10 1 12 -3 4 -12 125 -92
137 -92 6 0 11 -4 11 -9 0 -9 57 -47 74 -48 5 -1 12 -5 15 -10 10 -14 110 -83
121 -83 6 0 10 -5 10 -11 0 -5 5 -7 10 -4 6 3 10 3 10 -2 0 -8 71 -60 77 -56
1 2 14 -7 27 -18 13 -12 27 -21 30 -20 3 0 16 -10 30 -22 13 -12 39 -30 57
-40 19 -10 26 -12 17 -4 -10 8 -18 19 -18 26 0 6 -4 11 -10 11 -5 0 -10 7 -10
15 0 8 -4 15 -9 15 -5 0 -13 9 -16 20 -4 11 -18 32 -31 45 -13 14 -25 28 -26
32 -2 16 -51 83 -60 83 -5 0 -7 4 -4 8 3 5 -6 20 -19 34 -13 14 -21 29 -18 32
4 3 1 6 -5 6 -7 0 -12 7 -12 15 0 8 -3 15 -7 15 -5 0 -24 25 -43 55 -19 30
-38 55 -42 55 -5 0 -8 7 -8 15 0 9 -7 18 -15 21 -8 4 -15 12 -15 19 0 8 -6 20
-13 27 -7 7 -33 42 -57 78 -24 36 -47 67 -52 68 -4 2 -8 9 -8 16 0 6 -13 26
-30 44 -16 18 -29 35 -29 38 0 2 -26 42 -58 87 -32 45 -60 87 -63 92 -3 6 -23
35 -45 65 -22 30 -52 72 -65 92 -14 21 -29 38 -33 38 -5 0 -5 5 -2 10 3 6 3
10 -2 10 -4 0 -24 25 -43 55 -19 30 -38 55 -42 55 -5 0 -8 6 -8 14 0 8 -3 16
-7 18 -5 2 -35 42 -67 91 -33 48 -64 87 -69 87 -6 0 -8 3 -5 6 6 5 -131 209
-166 247 -9 9 -16 21 -16 26 0 4 -11 20 -25 35 -13 14 -22 26 -19 26 7 0 -49
74 -58 78 -5 2 -8 10 -8 18 0 8 -7 17 -15 20 -8 4 -13 9 -10 13 2 4 -7 19 -21
34 -13 14 -24 29 -24 31 0 9 -123 181 -132 184 -4 2 -8 9 -8 15 0 7 -11 24
-24 39 -14 14 -23 28 -21 30 3 2 -9 19 -25 36 -16 18 -27 32 -24 32 4 0 -40
63 -74 105 -4 6 -18 27 -31 48 -12 20 -27 37 -32 37 -6 0 -8 4 -5 9 3 5 -6 21
-19 35 -14 15 -25 31 -25 35 0 4 -11 20 -24 34 -13 14 -22 27 -20 29 2 2 -9
18 -24 34 -15 16 -27 33 -27 37 0 3 -8 16 -17 27 -10 11 -18 24 -18 29 0 5 -7
12 -16 15 -8 3 -12 10 -9 16 3 5 3 10 -2 10 -4 0 -24 25 -43 55 -19 30 -38 55
-42 55 -5 0 -8 7 -8 15 0 7 -8 19 -17 24 -10 6 -14 11 -10 11 8 0 -1 13 -35
51 -10 10 -16 19 -12 19 4 0 -41 65 -56 80 -3 3 -11 16 -18 30 -11 21 -97 70
-132 76 -3 0 -16 5 -30 11 -14 6 -79 32 -145 58 -66 26 -135 54 -154 62 -18 8
-39 16 -45 17 -6 1 -15 4 -21 8 -20 12 -150 61 -162 61 -7 0 -13 4 -13 9 0 4
-6 8 -13 8 -8 0 -28 7 -46 16 -17 9 -37 17 -44 18 -7 1 -30 10 -52 20 -22 10
-58 24 -80 32 -22 8 -49 18 -60 23 -17 8 -49 20 -65 26 -3 1 -16 6 -30 12 -14
6 -50 21 -80 32 -30 12 -64 26 -75 30 -17 8 -50 21 -65 26 -3 1 -16 6 -30 12
-14 6 -70 29 -125 50 -55 22 -109 44 -120 48 -11 5 -22 9 -25 10 -3 1 -18 7
-35 14 -16 7 -34 14 -40 16 -5 1 -26 9 -45 17 -36 16 -71 30 -80 33 -3 1 -18
7 -35 14 -190 77 -230 89 -308 89 -31 0 -57 -2 -59 -3z"/>
<path d="M6510 7531 c1 -4 13 -20 28 -38 24 -28 34 -32 97 -37 39 -3 93 -8
120 -10 28 -3 100 -8 160 -12 61 -4 128 -8 150 -10 392 -26 1000 -26 1370 1
22 2 83 6 135 10 52 4 115 8 140 10 25 2 81 7 125 10 44 3 84 10 89 15 6 6 6
10 2 10 -5 0 3 9 18 21 14 11 26 24 26 27 0 4 -78 6 -172 4 -243 -5 -1907 -5
-2115 0 -95 2 -173 2 -173 -1z"/>
<path d="M6595 7420 c-24 -38 -48 -246 -49 -405 0 -87 13 -332 19 -362 2 -11
6 -46 9 -79 4 -32 8 -72 11 -89 9 -57 17 -110 20 -135 3 -14 6 -36 9 -50 2
-14 8 -49 12 -79 5 -41 9 -49 17 -36 5 9 10 22 12 28 1 7 10 30 20 52 10 22
18 46 18 53 0 6 4 12 9 12 4 0 7 3 6 8 -1 4 4 18 12 32 7 14 13 26 12 27 -2 4
8 31 50 127 21 49 38 95 38 103 0 7 5 13 10 13 6 0 10 4 10 9 0 5 5 22 12 38
6 15 11 31 10 36 -1 4 2 7 6 7 8 0 37 71 33 79 -2 2 1 7 6 10 7 5 33 54 38 71
5 17 32 69 48 93 10 15 15 27 12 27 -3 0 3 13 14 29 21 29 21 31 4 65 -9 20
-20 36 -25 36 -4 0 -8 6 -8 13 0 6 -9 23 -19 36 l-19 24 -29 -59 c-16 -32 -30
-61 -31 -64 -5 -21 -45 -100 -52 -105 -19 -12 -14 19 33 190 18 62 22 95 16
107 -5 10 -13 18 -17 18 -4 0 -22 13 -39 29 -58 53 -223 116 -238 91z"/>
<path d="M8820 7418 c-25 -6 -48 -15 -51 -20 -3 -5 -10 -9 -15 -9 -17 1 -44
-10 -44 -20 0 -5 -7 -9 -15 -9 -9 0 -27 -11 -40 -24 -13 -13 -26 -22 -28 -19
-3 2 -14 -8 -26 -23 -20 -25 -21 -48 -4 -94 3 -8 7 -19 8 -25 2 -5 12 -47 24
-92 26 -102 26 -111 1 -88 -10 9 -18 20 -17 24 3 9 -36 95 -46 102 -5 3 -9 10
-9 15 -2 24 -21 64 -31 64 -11 0 -64 -75 -78 -110 -6 -15 11 -63 36 -100 5 -8
10 -17 10 -20 2 -13 51 -106 58 -111 5 -3 8 -9 7 -13 -1 -4 22 -60 50 -124 87
-193 90 -201 90 -211 0 -6 5 -11 10 -11 5 0 9 -3 8 -7 -3 -10 32 -104 44 -119
5 -7 10 -20 13 -30 2 -11 11 -37 21 -59 10 -22 19 -44 20 -50 4 -18 23 -65 27
-65 2 0 4 6 4 13 0 11 7 50 18 107 2 14 6 41 9 60 2 19 9 64 15 100 6 36 13
94 16 130 4 36 8 70 10 77 5 17 19 263 19 343 -1 97 -13 270 -23 313 -5 20 -8
37 -6 37 7 0 -24 74 -31 76 -5 1 -29 -3 -54 -8z"/>
<path d="M7096 7071 c-11 -4 -21 -16 -22 -27 -2 -10 -8 -41 -13 -69 -10 -50
-8 -276 3 -350 13 -88 13 -86 30 -170 11 -54 28 -105 34 -105 9 0 37 70 34 83
-1 4 2 7 7 7 7 0 15 17 26 60 0 3 13 29 28 57 15 29 26 54 25 55 -2 2 7 17 19
34 12 17 23 37 25 44 2 8 6 19 11 25 15 21 56 85 66 104 8 14 8 23 -2 33 -6 7
-19 26 -27 42 -23 45 -142 162 -170 168 -14 3 -32 8 -40 11 -8 3 -24 2 -34 -2z"/>
<path d="M8348 7074 c-4 -3 -12 -7 -20 -8 -31 -7 -55 -21 -82 -50 -16 -17 -26
-24 -22 -16 4 8 0 6 -9 -5 -9 -11 -25 -30 -35 -42 -11 -13 -17 -23 -12 -23 4
0 -1 -5 -10 -11 -10 -5 -18 -17 -18 -24 0 -8 -5 -15 -11 -15 -5 0 -7 -4 -4
-10 3 -5 2 -10 -3 -10 -31 0 -7 -73 33 -102 7 -5 7 -8 0 -8 -6 0 -6 -3 1 -8
11 -8 139 -266 170 -344 10 -27 22 -48 26 -48 14 0 47 152 65 295 10 74 10
276 1 330 -4 22 -7 47 -8 55 0 8 -4 20 -8 26 -9 14 -46 26 -54 18z"/>
<path d="M7517 6874 c-2 -3 -17 -7 -33 -10 -36 -7 -74 -47 -76 -82 -3 -48 2
-116 13 -172 14 -76 60 -224 71 -231 5 -3 9 -9 9 -13 -3 -18 0 -26 9 -26 6 0
9 3 8 8 -3 7 12 49 38 109 8 17 14 34 14 37 0 4 16 38 35 76 19 39 34 73 34
75 0 3 8 19 17 36 8 17 22 51 29 76 13 44 13 46 -12 69 -14 13 -29 21 -34 18
-5 -3 -9 -1 -9 4 0 6 -15 13 -32 16 -18 3 -43 8 -55 10 -11 3 -23 2 -26 0z"/>
<path d="M7890 6863 c-30 -7 -58 -19 -62 -26 -4 -7 -8 -8 -8 -3 0 24 -30 -20
-30 -45 0 -31 28 -110 43 -120 5 -3 9 -10 9 -15 0 -5 8 -27 18 -49 51 -112 70
-159 70 -171 0 -8 5 -14 11 -14 5 0 8 -4 5 -8 -2 -4 3 -23 11 -41 l16 -33 24
58 c13 32 25 68 27 79 2 11 9 33 15 49 7 16 9 31 6 34 -2 3 0 11 7 19 6 7 8
16 5 19 -3 3 -2 17 4 30 8 22 13 100 10 162 -1 21 -59 87 -69 78 -2 -2 -16 -1
-30 4 -16 4 -49 2 -82 -7z"/>
<path d="M6135 6544 c-27 -8 -63 -16 -80 -19 -16 -4 -75 -18 -130 -32 -55 -14
-113 -27 -130 -30 -38 -6 -95 -33 -95 -44 0 -5 -7 -9 -15 -9 -7 0 -18 -7 -23
-16 -5 -9 -13 -16 -18 -15 -11 0 -118 -71 -122 -81 -2 -5 -8 -8 -13 -8 -7 0
-95 -56 -109 -70 -3 -3 -39 -27 -80 -54 -41 -27 -77 -53 -78 -58 -2 -4 -8 -6
-13 -2 -5 3 -9 1 -9 -3 0 -5 -16 -17 -35 -27 -19 -11 -35 -23 -35 -28 0 -4 -7
-8 -15 -8 -9 0 -18 -7 -21 -15 -4 -8 -10 -12 -15 -9 -5 3 -12 -2 -15 -10 -3
-9 -10 -14 -14 -11 -4 2 -19 -6 -34 -20 -15 -13 -29 -25 -31 -25 -9 0 -160
-103 -163 -112 -2 -4 -8 -8 -13 -8 -10 0 -154 -96 -177 -117 -7 -7 -17 -13
-22 -13 -5 0 -15 -6 -22 -12 -7 -7 -77 -55 -156 -107 -79 -52 -147 -102 -151
-110 -5 -9 -11 -32 -15 -51 -3 -19 -8 -46 -11 -60 -16 -74 -26 -128 -30 -152
-2 -15 -6 -31 -8 -35 -3 -5 -8 -27 -11 -49 -4 -22 -8 -49 -11 -59 -2 -11 -24
-119 -49 -240 -25 -121 -48 -233 -51 -250 -4 -16 -8 -37 -9 -45 -1 -8 -6 -28
-9 -45 -4 -16 -9 -42 -11 -58 -3 -15 -7 -35 -10 -45 -3 -9 -7 -28 -10 -42 -2
-14 -23 -115 -45 -225 -23 -110 -43 -211 -46 -225 -6 -34 -12 -60 -19 -90 -3
-14 -8 -36 -10 -50 -5 -25 -30 -147 -48 -230 -5 -25 -11 -58 -14 -75 -6 -38
-12 -70 -14 -70 -2 0 -6 -18 -13 -60 -3 -16 -12 -64 -21 -105 -8 -41 -18 -90
-21 -109 -3 -19 -8 -37 -10 -41 -3 -4 -7 -22 -9 -41 -3 -19 -16 -88 -30 -154
-14 -66 -27 -131 -30 -145 -2 -14 -9 -45 -14 -70 -6 -25 -13 -61 -16 -81 -3
-20 -8 -44 -12 -55 -6 -16 60 86 106 166 8 14 21 33 29 43 8 9 10 17 5 17 -5
0 -4 4 2 8 10 6 144 219 144 229 0 2 5 9 10 16 27 31 167 266 162 271 -3 3 0
6 6 6 7 0 12 5 12 10 0 6 9 20 20 32 10 12 17 24 15 28 -3 4 4 15 15 25 11 10
20 24 20 32 0 7 5 13 11 13 5 0 8 4 5 9 -4 5 -2 11 3 13 10 4 91 136 91 149 0
5 5 9 11 9 5 0 8 4 5 9 -4 5 -2 11 2 13 11 4 211 330 211 342 -1 5 4 12 9 15
5 3 54 78 107 166 54 88 112 183 130 210 17 28 49 79 71 115 21 36 42 67 47
68 4 2 7 8 7 13 0 6 16 35 35 65 19 30 35 59 35 64 0 6 4 10 8 10 10 0 37 50
34 63 -1 4 2 7 7 7 5 0 24 26 41 58 18 31 52 87 75 123 24 36 52 81 63 101 36
63 47 81 60 97 7 9 13 21 14 26 2 6 8 17 15 25 7 8 13 19 12 24 0 5 3 12 8 15
14 9 103 156 103 170 0 7 4 10 9 7 8 -5 25 29 22 47 -1 4 3 7 9 7 10 0 42 56
38 66 -2 3 5 10 15 15 9 6 17 17 17 24 0 8 5 15 11 15 5 0 7 5 4 10 -3 6 -3
10 2 10 4 0 21 24 37 53 16 28 36 60 44 70 8 9 12 17 8 17 -4 0 1 9 11 19 10
11 27 37 38 58 11 21 26 44 32 51 7 7 13 19 13 27 0 7 4 15 8 17 10 4 72 105
72 117 0 5 3 11 8 13 11 5 63 88 55 88 -5 0 -3 4 3 8 13 9 103 154 103 166 -1
5 6 13 15 18 9 5 16 13 16 18 0 5 13 28 28 52 16 24 38 59 48 78 10 19 21 37
24 40 7 7 41 60 38 59 -2 0 -25 -7 -53 -15z"/>
<path d="M9300 6549 c0 -4 7 -14 15 -23 9 -8 15 -18 15 -21 -1 -3 13 -29 31
-58 19 -29 39 -63 47 -77 7 -13 19 -28 25 -32 7 -4 8 -8 4 -8 -4 0 6 -20 23
-44 16 -25 30 -49 30 -55 0 -6 5 -11 10 -11 6 0 10 -7 10 -15 0 -8 5 -15 10
-15 6 0 10 -6 10 -14 0 -8 8 -22 18 -32 9 -10 17 -20 17 -23 0 -10 48 -86 59
-93 6 -4 7 -8 3 -8 -9 0 31 -61 48 -72 5 -4 7 -8 2 -8 -8 0 62 -111 78 -122 5
-4 6 -8 2 -8 -4 0 6 -20 23 -44 16 -25 30 -49 30 -54 0 -6 7 -13 16 -16 8 -3
13 -10 10 -14 -3 -5 3 -18 12 -28 10 -10 18 -21 18 -24 0 -9 38 -65 49 -72 5
-4 6 -8 2 -8 -5 0 1 -12 12 -26 12 -15 21 -33 21 -41 0 -8 4 -12 9 -9 5 3 12
-5 15 -19 4 -14 11 -25 17 -25 6 0 8 -4 5 -8 -3 -5 4 -19 15 -30 11 -12 17
-22 15 -22 -5 0 34 -64 54 -87 5 -7 10 -15 10 -18 0 -4 14 -26 30 -50 17 -24
30 -48 30 -54 0 -6 5 -11 10 -11 6 0 10 -6 10 -13 0 -7 7 -22 15 -32 9 -11 34
-51 57 -90 23 -38 46 -73 52 -77 7 -5 7 -8 1 -8 -5 0 -3 -5 5 -10 8 -5 15 -13
15 -17 1 -14 69 -123 78 -123 4 0 6 -4 3 -8 -3 -5 4 -18 14 -30 11 -12 20 -28
20 -37 0 -8 5 -15 10 -15 6 0 10 -7 10 -15 0 -8 3 -15 8 -15 4 0 16 -19 27
-41 10 -23 25 -43 32 -46 7 -3 11 -8 8 -13 -2 -4 5 -17 16 -28 11 -12 17 -22
14 -22 -7 0 67 -113 80 -122 5 -4 7 -8 3 -8 -9 0 61 -112 76 -122 6 -4 7 -8 3
-8 -4 0 6 -20 23 -44 16 -25 30 -49 30 -54 0 -6 7 -13 16 -16 8 -3 13 -10 10
-14 -3 -5 5 -20 17 -33 12 -13 20 -24 17 -24 -8 0 34 -65 43 -65 4 0 5 -4 2
-10 -3 -5 -1 -10 5 -10 6 0 8 -4 5 -10 -3 -5 -1 -10 4 -10 6 0 11 -6 11 -13 0
-7 8 -22 19 -33 10 -11 22 -30 25 -42 4 -12 12 -22 18 -22 6 0 8 -3 5 -7 -4
-3 -1 -13 7 -22 19 -23 116 -181 116 -191 0 -4 7 -11 16 -14 9 -4 14 -9 11
-12 -6 -6 60 -115 77 -126 6 -4 8 -8 4 -8 -9 0 61 -112 76 -122 6 -4 7 -8 3
-8 -4 0 5 -19 21 -42 16 -24 39 -62 52 -85 13 -24 27 -43 32 -43 4 0 8 -9 8
-20 0 -10 6 -23 13 -27 6 -4 23 -28 36 -53 13 -25 30 -50 38 -57 8 -6 14 -15
14 -20 -1 -4 5 -15 12 -23 7 -8 12 -18 12 -21 0 -3 17 -32 38 -63 20 -32 37
-62 37 -67 0 -5 5 -9 11 -9 5 0 8 -4 4 -9 -3 -5 -1 -12 5 -16 5 -3 28 -37 50
-75 22 -38 46 -75 53 -82 6 -8 25 -39 41 -71 17 -31 31 -55 33 -54 1 2 -2 19
-7 38 -5 19 -11 48 -14 64 -3 17 -7 41 -10 55 -7 30 -36 172 -42 203 -2 12 -6
32 -9 45 -11 47 -15 69 -25 117 -5 28 -12 61 -15 75 -3 14 -8 41 -11 60 -2 19
-7 43 -10 52 -3 9 -7 27 -9 40 -3 13 -7 34 -10 48 -3 14 -7 34 -9 45 -6 30
-57 277 -62 300 -2 11 -7 36 -10 55 -3 19 -7 37 -9 40 -2 3 -6 25 -10 50 -4
25 -8 47 -10 51 -2 3 -7 21 -10 40 -8 45 -50 254 -150 740 -2 9 -6 33 -9 54
-4 20 -8 40 -10 44 -2 3 -7 22 -10 41 -3 19 -8 44 -10 55 -5 23 -75 366 -82
405 -3 14 -7 33 -10 42 -3 10 -7 30 -10 45 -4 24 -12 65 -20 96 -1 4 -2 19 -3
33 -1 24 -59 89 -76 84 -4 -1 -11 2 -14 7 -8 13 -159 114 -167 112 -4 0 -10 3
-13 8 -3 6 -49 38 -101 73 -52 35 -97 67 -98 72 -2 4 -8 6 -13 2 -5 -3 -9 0
-9 5 0 6 -7 11 -15 11 -8 0 -15 4 -15 8 0 4 -22 21 -50 37 -27 17 -50 33 -50
36 0 4 -13 12 -30 19 -16 7 -30 16 -30 21 0 5 -7 9 -15 9 -8 0 -15 5 -15 11 0
5 -4 7 -10 4 -5 -3 -10 -1 -10 5 0 6 -8 13 -17 17 -10 3 -34 19 -54 35 -20 15
-42 28 -48 28 -6 0 -11 4 -11 8 0 9 -63 48 -69 43 -2 -1 -8 4 -13 13 -5 9 -14
16 -19 16 -6 0 -17 6 -24 13 -29 25 -42 35 -66 47 -13 7 -48 31 -76 52 -29 21
-53 35 -53 31 0 -4 -7 2 -15 13 -8 10 -15 15 -15 11 0 -5 -6 -2 -14 5 -25 24
-69 53 -74 50 -3 -2 -9 3 -14 12 -5 9 -13 14 -18 11 -4 -3 -11 2 -14 11 -3 8
-10 13 -15 10 -5 -3 -12 1 -15 10 -4 9 -9 14 -12 11 -3 -2 -17 6 -31 19 -14
13 -34 24 -44 24 -27 0 -32 1 -50 11 -9 4 -29 11 -45 14 -16 3 -98 22 -181 43
-84 21 -153 34 -153 31z"/>
<path d="M6558 5963 c-31 -34 -37 -119 -32 -418 2 -159 6 -308 8 -330 3 -22 7
-87 11 -145 17 -261 27 -400 40 -520 2 -19 7 -73 10 -120 4 -47 9 -103 11
-125 5 -41 9 -86 20 -210 3 -38 7 -83 9 -100 2 -16 6 -59 9 -95 3 -36 8 -85
11 -110 2 -25 7 -70 10 -100 3 -30 8 -75 11 -100 2 -25 7 -70 10 -100 3 -30 7
-68 9 -85 2 -16 6 -57 9 -90 7 -74 17 -164 21 -185 1 -8 6 -49 9 -90 4 -41 9
-88 11 -105 3 -16 7 -55 10 -85 3 -30 7 -64 9 -75 2 -11 7 -55 11 -97 3 -43 9
-92 11 -110 6 -41 10 -72 19 -168 8 -78 21 -127 32 -116 3 3 11 2 17 -3 6 -5
28 -12 50 -16 34 -7 38 -6 32 11 -7 23 -19 122 -30 254 -3 30 -8 80 -11 110
-2 30 -7 93 -11 140 -3 47 -7 101 -9 120 -9 117 -16 215 -20 283 -10 154 -16
243 -20 287 -2 25 -7 104 -10 175 -3 72 -8 150 -10 175 -3 25 -7 97 -10 160
-3 63 -7 147 -10 185 -9 148 -17 290 -20 354 -7 140 -16 330 -21 411 -14 263
-14 312 -2 308 7 -3 13 -15 14 -29 2 -45 15 -174 19 -204 3 -16 7 -52 10 -80
12 -129 16 -163 21 -201 2 -22 7 -65 10 -95 3 -30 11 -110 19 -179 8 -69 17
-154 20 -190 3 -36 8 -83 11 -105 9 -63 12 -85 19 -165 4 -41 8 -76 9 -77 1
-2 17 40 35 93 35 100 35 99 17 304 -3 25 -7 90 -11 145 -4 55 -8 120 -10 145
-2 25 -6 86 -10 135 -3 50 -7 110 -10 135 -2 25 -6 86 -10 135 -3 50 -8 113
-10 140 -3 28 -7 86 -10 130 -3 44 -8 114 -11 155 -4 41 -7 89 -8 106 -1 17
-10 43 -19 57 -9 15 -17 31 -17 37 0 5 -5 10 -12 10 -6 0 -9 3 -5 6 3 4 -5 23
-18 43 -14 19 -25 41 -25 47 0 7 -3 14 -7 16 -5 2 -26 38 -48 80 -22 43 -44
78 -48 78 -5 0 -6 4 -3 8 9 15 -29 52 -59 58 -22 4 -35 1 -47 -13z"/>
<path d="M8860 5969 c0 -5 -4 -8 -9 -5 -5 3 -14 -1 -21 -9 -7 -8 -9 -15 -4
-15 5 0 4 -4 -2 -8 -14 -9 -49 -74 -46 -84 1 -5 -2 -8 -7 -8 -5 0 -13 -10 -17
-22 -3 -13 -15 -35 -26 -50 -11 -16 -16 -28 -11 -28 4 0 3 -4 -3 -8 -17 -11
-97 -163 -100 -189 -1 -13 -5 -65 -8 -116 -4 -50 -9 -117 -11 -147 -3 -30 -7
-89 -10 -130 -5 -76 -12 -164 -21 -280 -3 -36 -7 -98 -9 -139 -3 -41 -7 -95
-9 -120 -5 -44 -15 -185 -21 -281 -2 -25 -6 -86 -10 -137 -7 -87 -6 -96 26
-187 18 -52 34 -95 35 -93 1 1 5 34 8 72 4 39 9 84 11 100 4 31 22 204 30 290
3 28 7 61 10 75 2 14 7 57 11 95 9 101 11 114 18 180 6 57 9 78 21 200 3 28 7
66 10 85 2 19 7 67 11 105 4 39 8 79 10 90 1 11 3 26 3 33 1 6 6 12 12 12 11
0 9 -67 -16 -520 -2 -47 -7 -130 -10 -185 -2 -55 -7 -138 -10 -185 -3 -47 -7
-132 -10 -190 -6 -124 -13 -236 -20 -340 -3 -41 -7 -115 -10 -165 -12 -216
-15 -263 -20 -315 -2 -30 -7 -100 -10 -155 -7 -125 -14 -227 -20 -285 -3 -25
-7 -81 -10 -125 -7 -96 -14 -189 -19 -230 -2 -16 -6 -61 -10 -100 -13 -131
-17 -160 -23 -179 -4 -16 -2 -18 23 -11 16 4 34 8 39 9 55 12 60 20 70 126 5
53 12 123 20 185 2 17 6 57 10 90 3 33 8 78 11 100 2 22 7 60 9 85 6 50 13
116 20 170 2 19 7 62 10 95 3 33 8 71 10 85 2 14 7 61 10 105 3 44 8 89 10
100 2 11 7 49 10 85 3 36 7 79 10 95 2 17 6 64 9 106 4 42 9 86 11 98 2 12 6
58 10 104 3 45 7 93 10 107 4 23 14 130 20 210 3 40 13 153 20 220 3 25 7 78
10 119 4 40 8 90 10 110 5 52 16 197 20 256 8 134 17 266 21 306 3 24 6 175 8
334 5 359 -5 414 -71 415 -13 0 -23 -5 -23 -11z"/>
<path d="M7049 5573 c-2 -15 10 -189 16 -223 2 -14 7 -65 10 -115 3 -49 8
-106 10 -125 2 -19 6 -71 9 -115 3 -44 8 -102 11 -130 14 -152 18 -199 30
-355 12 -153 16 -173 48 -217 17 -24 34 -43 39 -43 4 0 8 -5 8 -11 0 -17 113
-125 156 -148 37 -20 53 -21 352 -21 363 0 350 -3 447 95 63 64 108 115 100
115 -2 0 7 12 20 26 15 16 25 40 26 58 0 17 2 40 4 51 2 11 7 63 10 115 4 52
9 111 11 130 6 61 13 143 19 220 3 41 7 91 10 110 2 19 7 71 10 115 3 44 8
107 11 140 27 310 28 335 13 335 -8 0 -34 -20 -58 -45 -24 -25 -48 -45 -53
-45 -5 0 -6 -4 -3 -10 3 -5 2 -10 -4 -10 -5 0 -56 -45 -113 -100 -57 -55 -107
-100 -111 -100 -5 0 -5 -4 -2 -10 3 -5 1 -10 -4 -10 -6 0 -48 -36 -93 -80 -45
-44 -83 -80 -84 -80 -2 0 -31 -28 -65 -61 l-63 -62 -2 -86 c-5 -169 -13 -283
-18 -289 -17 -17 -21 16 -30 256 l-5 123 -41 39 c-23 22 -46 40 -51 40 -6 0
-7 5 -4 10 3 6 3 10 -2 10 -4 0 -45 36 -91 80 -45 44 -82 79 -82 77 0 -2 -51
47 -113 108 -235 229 -274 263 -278 238z"/>
<path d="M7132 4223 c-16 -92 -6 -169 29 -240 17 -34 43 -70 56 -80 14 -10 30
-22 37 -28 74 -65 273 -109 316 -70 11 10 20 14 20 10 0 -4 12 5 26 21 24 27
66 106 64 120 -2 10 51 34 69 32 23 -4 49 -35 70 -84 19 -41 79 -109 89 -99 3
3 10 1 17 -5 14 -11 68 -14 115 -5 54 11 156 54 182 78 13 12 26 22 29 22 10
0 55 57 71 90 31 60 42 155 26 227 -5 24 -9 49 -10 56 -1 7 -24 -13 -52 -45
-79 -89 -133 -141 -174 -167 l-37 -24 -342 0 c-194 1 -343 5 -343 10 0 5 -4 7
-9 4 -5 -3 -12 1 -15 10 -4 9 -9 14 -12 11 -6 -6 -135 121 -185 182 l-27 32
-10 -58z"/>
<path d="M6935 3080 c4 -373 7 -466 19 -590 16 -159 24 -220 40 -280 3 -8 5
-18 5 -22 2 -15 52 -8 57 7 4 8 10 13 15 10 4 -3 13 4 20 17 6 12 20 31 30 42
11 11 19 26 19 33 0 7 4 13 9 13 10 0 7 66 -5 130 -10 50 -10 55 -19 150 -3
47 -9 89 -12 94 -3 5 0 7 8 4 8 -2 22 -31 32 -64 9 -32 22 -72 28 -89 5 -16
12 -37 14 -45 2 -8 8 -26 13 -40 l10 -25 11 30 c6 17 14 37 18 45 3 8 7 17 7
20 1 3 5 11 9 18 18 27 0 124 -26 143 -5 3 -9 9 -8 12 0 4 -7 24 -16 44 -9 21
-17 40 -18 43 -1 3 -8 19 -15 35 -7 17 -14 32 -15 35 -1 3 -5 14 -9 25 -5 11
-25 65 -46 120 -21 55 -41 109 -45 120 -5 11 -9 25 -11 30 -1 6 -15 42 -29 80
-15 39 -30 81 -35 95 -4 14 -14 39 -20 55 -7 17 -14 37 -16 46 -2 8 -8 26 -14
40 -7 17 -9 -95 -5 -381z"/>
<path d="M8540 3462 c0 -10 -3 -22 -7 -26 -4 -3 -8 -12 -9 -19 -1 -7 -23 -68
-49 -137 -26 -69 -48 -129 -49 -135 -2 -5 -6 -17 -9 -25 -9 -21 -51 -134 -52
-140 -1 -3 -7 -18 -14 -35 -7 -16 -24 -59 -38 -94 -13 -36 -42 -103 -64 -149
-22 -46 -40 -96 -40 -110 2 -50 4 -62 13 -62 5 0 7 -3 5 -7 -3 -5 6 -28 19
-53 12 -25 24 -39 25 -32 2 17 2 16 33 117 16 50 33 107 39 128 13 40 28 51
22 15 -2 -13 -6 -52 -9 -88 -5 -68 -11 -109 -26 -200 -6 -30 -8 -65 -5 -78 5
-29 44 -92 56 -92 5 0 9 -6 9 -13 0 -18 37 -47 61 -47 25 0 45 44 53 120 4 30
8 69 10 85 6 46 18 180 23 259 7 133 16 836 9 836 -3 0 -6 -8 -6 -18z"/>
<path d="M7707 2731 c-15 -17 -34 -42 -41 -56 l-14 -27 -12 22 c-7 12 -25 36
-41 53 l-30 31 -39 -44 c-40 -46 -42 -50 -44 -107 -1 -36 -18 -50 -21 -18 -6
57 -18 81 -52 111 -21 18 -42 32 -48 31 -17 -3 -58 -80 -60 -112 -1 -16 2 -48
6 -70 4 -22 10 -58 14 -80 4 -22 8 -44 9 -50 2 -5 6 -27 10 -47 7 -33 13 -38
43 -44 19 -4 53 -1 75 6 30 8 43 9 48 1 8 -15 110 -26 110 -13 0 13 18 10 48
-6 12 -7 22 -9 22 -5 0 4 5 2 12 -5 17 -17 49 -15 99 7 25 12 48 16 54 11 14
-11 102 -5 119 9 9 8 22 8 45 0 41 -14 98 -3 111 21 6 11 9 20 6 20 -2 0 0 17
6 37 6 21 12 47 13 58 2 11 6 40 10 65 4 25 8 56 10 69 4 24 -24 101 -37 101
-5 0 -8 7 -8 15 0 19 -10 19 -40 -2 -41 -28 -70 -63 -71 -86 -1 -12 -2 -26 -4
-32 -1 -5 -3 -16 -3 -24 -4 -29 -14 -1 -18 46 -2 28 -10 52 -19 59 -8 6 -13
13 -11 15 2 2 -9 17 -24 33 l-27 28 -42 -40 c-23 -23 -42 -44 -41 -47 1 -4 -1
-9 -4 -12 -3 -4 -6 1 -6 10 0 10 -5 17 -12 17 -6 0 -9 3 -5 6 6 6 -51 74 -62
74 -3 0 -19 -13 -34 -29z"/>
<path d="M7164 2209 c-3 -5 -9 -7 -13 -5 -4 3 -18 -5 -32 -17 -43 -40 -84 -63
-107 -61 -25 2 -62 31 -62 50 0 7 -18 14 -42 16 -24 3 -51 8 -62 13 -18 8 -18
4 -11 -61 11 -112 16 -148 20 -174 3 -14 7 -56 11 -95 3 -38 8 -73 10 -76 2
-3 6 -39 10 -80 10 -120 29 -140 159 -174 33 -9 67 -18 75 -20 84 -23 170 -45
190 -49 14 -2 48 -9 75 -16 168 -39 488 -46 635 -15 14 3 41 8 60 11 19 3 38
8 41 10 3 2 21 6 40 9 45 8 293 73 327 86 15 6 28 10 30 10 1 -1 13 6 26 14
30 20 44 54 50 131 3 34 10 92 15 130 5 38 12 97 16 131 3 34 7 70 9 80 2 10
7 49 10 87 6 63 6 68 -11 61 -10 -5 -34 -10 -53 -12 -23 -3 -44 -15 -61 -36
-29 -33 -83 -42 -100 -16 -5 8 -9 11 -9 8 0 -4 -16 8 -37 27 -20 18 -40 31
-45 28 -4 -3 -8 -1 -8 5 0 10 -85 -10 -125 -30 -11 -5 -29 -11 -40 -14 -11 -2
-56 -13 -100 -24 -44 -12 -98 -24 -120 -27 -22 -3 -58 -9 -81 -13 -42 -8 -210
-6 -254 2 -14 3 -43 8 -65 12 -63 12 -66 13 -145 35 -41 12 -82 23 -90 24 -8
2 -22 6 -30 9 -55 22 -101 33 -106 26z m-44 -262 c71 -25 143 -41 220 -52 14
-1 45 -6 70 -9 170 -24 626 -19 730 9 8 2 33 6 55 10 73 10 185 45 245 75 33
17 60 29 61 28 5 -20 6 -37 1 -35 -4 1 -18 -6 -33 -16 -46 -31 -246 -91 -341
-102 -23 -3 -54 -7 -68 -10 -93 -17 -355 -22 -535 -11 -135 8 -399 63 -432 89
-7 5 -13 7 -13 3 0 -6 -88 40 -104 54 -4 5 -5 13 -1 19 4 8 21 4 53 -13 26
-13 67 -31 92 -39z"/>
</g>
</svg>
