<svg xmlns="http://www.w3.org/2000/svg" xmlns:xlink="http://www.w3.org/1999/xlink"><defs>
    <clipPath id="a">
      <rect width="24" height="24" fill="#fff" rx="1"/>
    </clipPath>
  </defs><symbol id="icon-close" viewBox="0 0 20 20"><path d="M.293 18.291a1 1 0 101.414 1.414L10 11.413l8.292 8.292a1 1 0 101.414-1.414l-8.292-8.292 8.292-8.292A1 1 0 1018.291.293L9.999 8.585 1.707.293A1 1 0 10.293 1.707L8.585 10 .293 18.291z"/></symbol><symbol id="icon-paperclip" viewBox="0 0 24 24">
  <g clip-path="url(#a)" opacity=".8">
    <path fill="#fff" d="m20.32 10.33-7.46 9.4a5 5 0 0 1-7.83-6.22l7.46-9.4a3 3 0 0 1 4.7 3.73l-5.6 7.05a1 1 0 0 1-1.56-1.24L15 7.38l-1.56-1.24-4.98 6.26a3 3 0 1 0 4.7 3.73l5.6-7.04a5 5 0 0 0-7.83-6.22l-7.47 9.4a7 7 0 0 0 10.97 8.7l7.46-9.4-1.57-1.24Z"/>
  </g>
  
</symbol></svg>